<?xml version="1.0" encoding="UTF-8" standalone="no"?>
<!DOCTYPE svg PUBLIC "-//W3C//DTD SVG 1.1//EN"
 "http://www.w3.org/Graphics/SVG/1.1/DTD/svg11.dtd">
<!-- Generated by graphviz version 2.43.0 (0)
 -->
<!-- Title: snakemake_dag Pages: 1 -->
<svg width="545pt" height="260pt"
 viewBox="0.00 0.00 545.00 260.00" xmlns="http://www.w3.org/2000/svg" xmlns:xlink="http://www.w3.org/1999/xlink">
<g id="graph0" class="graph" transform="scale(1 1) rotate(0) translate(4 256)">
<title>snakemake_dag</title>
<polygon fill="white" stroke="transparent" points="-4,4 -4,-256 541,-256 541,4 -4,4"/>
<!-- 0 -->
<g id="node1" class="node">
<title>0</title>
<path fill="none" stroke="#59d856" stroke-width="2" d="M304,-36C304,-36 255,-36 255,-36 249,-36 243,-30 243,-24 243,-24 243,-12 243,-12 243,-6 249,0 255,0 255,0 304,0 304,0 310,0 316,-6 316,-12 316,-12 316,-24 316,-24 316,-30 310,-36 304,-36"/>
<text text-anchor="middle" x="279.5" y="-15.5" font-family="sans" font-size="10.00">make_PSET</text>
</g>
<!-- 1 -->
<g id="node2" class="node">
<title>1</title>
<path fill="none" stroke="#56d882" stroke-width="2" d="M99.5,-108C99.5,-108 55.5,-108 55.5,-108 49.5,-108 43.5,-102 43.5,-96 43.5,-96 43.5,-84 43.5,-84 43.5,-78 49.5,-72 55.5,-72 55.5,-72 99.5,-72 99.5,-72 105.5,-72 111.5,-78 111.5,-84 111.5,-84 111.5,-96 111.5,-96 111.5,-102 105.5,-108 99.5,-108"/>
<text text-anchor="middle" x="77.5" y="-87.5" font-family="sans" font-size="10.00">make_TRE</text>
</g>
<!-- 1&#45;&gt;0 -->
<g id="edge1" class="edge">
<title>1&#45;&gt;0</title>
<path fill="none" stroke="grey" stroke-width="2" d="M111.7,-75.28C114.67,-74.15 117.63,-73.04 120.5,-72 158.12,-58.3 201.24,-44.02 233.08,-33.73"/>
<polygon fill="grey" stroke="grey" stroke-width="2" points="234.55,-36.94 242.99,-30.54 232.4,-30.27 234.55,-36.94"/>
</g>
<!-- 2 -->
<g id="node3" class="node">
<title>2</title>
<path fill="none" stroke="#5682d8" stroke-width="2" d="M113,-180C113,-180 12,-180 12,-180 6,-180 0,-174 0,-168 0,-168 0,-156 0,-156 0,-150 6,-144 12,-144 12,-144 113,-144 113,-144 119,-144 125,-150 125,-156 125,-156 125,-168 125,-168 125,-174 119,-180 113,-180"/>
<text text-anchor="middle" x="62.5" y="-159.5" font-family="sans" font-size="10.00">process_monotherapy</text>
</g>
<!-- 2&#45;&gt;1 -->
<g id="edge5" class="edge">
<title>2&#45;&gt;1</title>
<path fill="none" stroke="grey" stroke-width="2" d="M66.21,-143.7C67.86,-135.98 69.85,-126.71 71.69,-118.11"/>
<polygon fill="grey" stroke="grey" stroke-width="2" points="75.16,-118.62 73.83,-108.1 68.32,-117.15 75.16,-118.62"/>
</g>
<!-- 9 -->
<g id="node10" class="node">
<title>9</title>
<path fill="none" stroke="#56d8d8" stroke-width="2" d="M261.5,-108C261.5,-108 141.5,-108 141.5,-108 135.5,-108 129.5,-102 129.5,-96 129.5,-96 129.5,-84 129.5,-84 129.5,-78 135.5,-72 141.5,-72 141.5,-72 261.5,-72 261.5,-72 267.5,-72 273.5,-78 273.5,-84 273.5,-84 273.5,-96 273.5,-96 273.5,-102 267.5,-108 261.5,-108"/>
<text text-anchor="middle" x="201.5" y="-87.5" font-family="sans" font-size="10.00">make_treatmentMetadata</text>
</g>
<!-- 2&#45;&gt;9 -->
<g id="edge13" class="edge">
<title>2&#45;&gt;9</title>
<path fill="none" stroke="grey" stroke-width="2" d="M96.5,-143.88C115.1,-134.51 138.33,-122.81 158.21,-112.8"/>
<polygon fill="grey" stroke="grey" stroke-width="2" points="160.01,-115.81 167.37,-108.19 156.86,-109.56 160.01,-115.81"/>
</g>
<!-- 3 -->
<g id="node4" class="node">
<title>3</title>
<path fill="none" stroke="#afd856" stroke-width="2" d="M168,-252C168,-252 47,-252 47,-252 41,-252 35,-246 35,-240 35,-240 35,-228 35,-228 35,-222 41,-216 47,-216 47,-216 168,-216 168,-216 174,-216 180,-222 180,-228 180,-228 180,-240 180,-240 180,-246 174,-252 168,-252"/>
<text text-anchor="middle" x="107.5" y="-231.5" font-family="sans" font-size="10.00">download_treatment_data</text>
</g>
<!-- 3&#45;&gt;2 -->
<g id="edge7" class="edge">
<title>3&#45;&gt;2</title>
<path fill="none" stroke="grey" stroke-width="2" d="M96.38,-215.7C91.14,-207.56 84.8,-197.69 79.02,-188.7"/>
<polygon fill="grey" stroke="grey" stroke-width="2" points="81.85,-186.62 73.5,-180.1 75.96,-190.41 81.85,-186.62"/>
</g>
<!-- 4 -->
<g id="node5" class="node">
<title>4</title>
<path fill="none" stroke="#56a9d8" stroke-width="2" d="M261.5,-180C261.5,-180 155.5,-180 155.5,-180 149.5,-180 143.5,-174 143.5,-168 143.5,-168 143.5,-156 143.5,-156 143.5,-150 149.5,-144 155.5,-144 155.5,-144 261.5,-144 261.5,-144 267.5,-144 273.5,-150 273.5,-156 273.5,-156 273.5,-168 273.5,-168 273.5,-174 267.5,-180 261.5,-180"/>
<text text-anchor="middle" x="208.5" y="-159.5" font-family="sans" font-size="10.00">process_combotherapy</text>
</g>
<!-- 3&#45;&gt;4 -->
<g id="edge9" class="edge">
<title>3&#45;&gt;4</title>
<path fill="none" stroke="grey" stroke-width="2" d="M132.21,-215.88C145.17,-206.89 161.23,-195.76 175.27,-186.03"/>
<polygon fill="grey" stroke="grey" stroke-width="2" points="177.47,-188.76 183.7,-180.19 173.48,-183.01 177.47,-188.76"/>
</g>
<!-- 4&#45;&gt;1 -->
<g id="edge6" class="edge">
<title>4&#45;&gt;1</title>
<path fill="none" stroke="grey" stroke-width="2" d="M176.45,-143.88C159.01,-134.55 137.23,-122.92 118.56,-112.94"/>
<polygon fill="grey" stroke="grey" stroke-width="2" points="120.14,-109.82 109.67,-108.19 116.84,-115.99 120.14,-109.82"/>
</g>
<!-- 4&#45;&gt;9 -->
<g id="edge14" class="edge">
<title>4&#45;&gt;9</title>
<path fill="none" stroke="grey" stroke-width="2" d="M206.77,-143.7C206,-135.98 205.07,-126.71 204.21,-118.11"/>
<polygon fill="grey" stroke="grey" stroke-width="2" points="207.69,-117.71 203.21,-108.1 200.72,-118.4 207.69,-117.71"/>
</g>
<!-- 5 -->
<g id="node6" class="node">
<title>5</title>
<path fill="none" stroke="#d8ac56" stroke-width="2" d="M347.5,-252C347.5,-252 255.5,-252 255.5,-252 249.5,-252 243.5,-246 243.5,-240 243.5,-240 243.5,-228 243.5,-228 243.5,-222 249.5,-216 255.5,-216 255.5,-216 347.5,-216 347.5,-216 353.5,-216 359.5,-222 359.5,-228 359.5,-228 359.5,-240 359.5,-240 359.5,-246 353.5,-252 347.5,-252"/>
<text text-anchor="middle" x="301.5" y="-231.5" font-family="sans" font-size="10.00">download_metadata</text>
</g>
<!-- 5&#45;&gt;4 -->
<g id="edge8" class="edge">
<title>5&#45;&gt;4</title>
<path fill="none" stroke="grey" stroke-width="2" d="M278.51,-215.7C266.69,-206.8 252.11,-195.82 239.32,-186.2"/>
<polygon fill="grey" stroke="grey" stroke-width="2" points="241.32,-183.32 231.22,-180.1 237.11,-188.91 241.32,-183.32"/>
</g>
<!-- 6 -->
<g id="node7" class="node">
<title>6</title>
<path fill="none" stroke="#80d856" stroke-width="2" d="M469,-180C469,-180 434,-180 434,-180 428,-180 422,-174 422,-168 422,-168 422,-156 422,-156 422,-150 428,-144 434,-144 434,-144 469,-144 469,-144 475,-144 481,-150 481,-156 481,-156 481,-168 481,-168 481,-174 475,-180 469,-180"/>
<text text-anchor="middle" x="451.5" y="-159.5" font-family="sans" font-size="10.00">get_MAE</text>
</g>
<!-- 5&#45;&gt;6 -->
<g id="edge10" class="edge">
<title>5&#45;&gt;6</title>
<path fill="none" stroke="grey" stroke-width="2" d="M338.19,-215.88C360.76,-205.35 389.65,-191.87 412.6,-181.15"/>
<polygon fill="grey" stroke="grey" stroke-width="2" points="414.14,-184.3 421.72,-176.9 411.18,-177.95 414.14,-184.3"/>
</g>
<!-- 8 -->
<g id="node9" class="node">
<title>8</title>
<path fill="none" stroke="#56d8a9" stroke-width="2" d="M411,-108C411,-108 304,-108 304,-108 298,-108 292,-102 292,-96 292,-96 292,-84 292,-84 292,-78 298,-72 304,-72 304,-72 411,-72 411,-72 417,-72 423,-78 423,-84 423,-84 423,-96 423,-96 423,-102 417,-108 411,-108"/>
<text text-anchor="middle" x="357.5" y="-87.5" font-family="sans" font-size="10.00">make_sampleMetadata</text>
</g>
<!-- 5&#45;&gt;8 -->
<g id="edge12" class="edge">
<title>5&#45;&gt;8</title>
<path fill="none" stroke="grey" stroke-width="2" d="M308.25,-215.87C317.88,-191.46 335.64,-146.43 347,-117.64"/>
<polygon fill="grey" stroke="grey" stroke-width="2" points="350.31,-118.78 350.72,-108.19 343.8,-116.21 350.31,-118.78"/>
</g>
<!-- 5&#45;&gt;9 -->
<g id="edge15" class="edge">
<title>5&#45;&gt;9</title>
<path fill="none" stroke="grey" stroke-width="2" d="M301.6,-215.76C300.91,-196.63 297.33,-165.63 282.5,-144 274.01,-131.61 261.57,-121.41 248.98,-113.39"/>
<polygon fill="grey" stroke="grey" stroke-width="2" points="250.67,-110.31 240.29,-108.17 247.07,-116.32 250.67,-110.31"/>
</g>
<!-- 6&#45;&gt;0 -->
<g id="edge2" class="edge">
<title>6&#45;&gt;0</title>
<path fill="none" stroke="grey" stroke-width="2" d="M452.54,-143.73C452.77,-124 450.08,-91.89 432.5,-72 405.67,-41.65 360.57,-28.67 326.27,-23.13"/>
<polygon fill="grey" stroke="grey" stroke-width="2" points="326.4,-19.61 316,-21.64 325.4,-26.54 326.4,-19.61"/>
</g>
<!-- 7 -->
<g id="node8" class="node">
<title>7</title>
<path fill="none" stroke="#d6d856" stroke-width="2" d="M525,-252C525,-252 390,-252 390,-252 384,-252 378,-246 378,-240 378,-240 378,-228 378,-228 378,-222 384,-216 390,-216 390,-216 525,-216 525,-216 531,-216 537,-222 537,-228 537,-228 537,-240 537,-240 537,-246 531,-252 525,-252"/>
<text text-anchor="middle" x="457.5" y="-231.5" font-family="sans" font-size="10.00">download_molecular_profiles</text>
</g>
<!-- 7&#45;&gt;6 -->
<g id="edge11" class="edge">
<title>7&#45;&gt;6</title>
<path fill="none" stroke="grey" stroke-width="2" d="M456.02,-215.7C455.36,-207.98 454.56,-198.71 453.82,-190.11"/>
<polygon fill="grey" stroke="grey" stroke-width="2" points="457.31,-189.77 452.97,-180.1 450.33,-190.37 457.31,-189.77"/>
</g>
<!-- 8&#45;&gt;0 -->
<g id="edge3" class="edge">
<title>8&#45;&gt;0</title>
<path fill="none" stroke="grey" stroke-width="2" d="M338.22,-71.7C328.58,-63.05 316.77,-52.45 306.27,-43.03"/>
<polygon fill="grey" stroke="grey" stroke-width="2" points="308.34,-40.18 298.56,-36.1 303.66,-45.39 308.34,-40.18"/>
</g>
<!-- 9&#45;&gt;0 -->
<g id="edge4" class="edge">
<title>9&#45;&gt;0</title>
<path fill="none" stroke="grey" stroke-width="2" d="M220.78,-71.7C230.42,-63.05 242.23,-52.45 252.73,-43.03"/>
<polygon fill="grey" stroke="grey" stroke-width="2" points="255.34,-45.39 260.44,-36.1 250.66,-40.18 255.34,-45.39"/>
</g>
</g>
</svg>
