<?xml version="1.0" encoding="UTF-8" standalone="no"?>
<!DOCTYPE svg PUBLIC "-//W3C//DTD SVG 1.1//EN"
 "http://www.w3.org/Graphics/SVG/1.1/DTD/svg11.dtd">
<!-- Generated by graphviz version 2.43.0 (0)
 -->
<!-- Title: snakemake_dag Pages: 1 -->
<svg width="282pt" height="188pt"
 viewBox="0.00 0.00 281.50 188.00" xmlns="http://www.w3.org/2000/svg" xmlns:xlink="http://www.w3.org/1999/xlink">
<g id="graph0" class="graph" transform="scale(1 1) rotate(0) translate(4 184)">
<title>snakemake_dag</title>
<polygon fill="white" stroke="transparent" points="-4,4 -4,-184 277.5,-184 277.5,4 -4,4"/>
<!-- 0 -->
<g id="node1" class="node">
<title>0</title>
<path fill="none" stroke="#d8bc56" stroke-width="2" d="M201,-36C201,-36 152,-36 152,-36 146,-36 140,-30 140,-24 140,-24 140,-12 140,-12 140,-6 146,0 152,0 152,0 201,0 201,0 207,0 213,-6 213,-12 213,-12 213,-24 213,-24 213,-30 207,-36 201,-36"/>
<text text-anchor="middle" x="176.5" y="-15.5" font-family="sans" font-size="10.00">make_PSET</text>
</g>
<!-- 1 -->
<g id="node2" class="node">
<title>1</title>
<path fill="none" stroke="#88d856" stroke-width="2" d="M157.5,-108C157.5,-108 113.5,-108 113.5,-108 107.5,-108 101.5,-102 101.5,-96 101.5,-96 101.5,-84 101.5,-84 101.5,-78 107.5,-72 113.5,-72 113.5,-72 157.5,-72 157.5,-72 163.5,-72 169.5,-78 169.5,-84 169.5,-84 169.5,-96 169.5,-96 169.5,-102 163.5,-108 157.5,-108"/>
<text text-anchor="middle" x="135.5" y="-87.5" font-family="sans" font-size="10.00">make_TRE</text>
</g>
<!-- 1&#45;&gt;0 -->
<g id="edge1" class="edge">
<title>1&#45;&gt;0</title>
<path fill="none" stroke="grey" stroke-width="2" d="M145.63,-71.7C150.35,-63.64 156.06,-53.89 161.28,-44.98"/>
<polygon fill="grey" stroke="grey" stroke-width="2" points="164.45,-46.5 166.48,-36.1 158.41,-42.96 164.45,-46.5"/>
</g>
<!-- 2 -->
<g id="node3" class="node">
<title>2</title>
<path fill="none" stroke="#56c1d8" stroke-width="2" d="M113,-180C113,-180 12,-180 12,-180 6,-180 0,-174 0,-168 0,-168 0,-156 0,-156 0,-150 6,-144 12,-144 12,-144 113,-144 113,-144 119,-144 125,-150 125,-156 125,-156 125,-168 125,-168 125,-174 119,-180 113,-180"/>
<text text-anchor="middle" x="62.5" y="-159.5" font-family="sans" font-size="10.00">process_monotherapy</text>
</g>
<!-- 2&#45;&gt;1 -->
<g id="edge3" class="edge">
<title>2&#45;&gt;1</title>
<path fill="none" stroke="grey" stroke-width="2" d="M80.54,-143.7C89.56,-135.05 100.62,-124.45 110.44,-115.03"/>
<polygon fill="grey" stroke="grey" stroke-width="2" points="112.87,-117.55 117.66,-108.1 108.02,-112.5 112.87,-117.55"/>
</g>
<!-- 3 -->
<g id="node4" class="node">
<title>3</title>
<path fill="none" stroke="#56d88a" stroke-width="2" d="M261.5,-180C261.5,-180 155.5,-180 155.5,-180 149.5,-180 143.5,-174 143.5,-168 143.5,-168 143.5,-156 143.5,-156 143.5,-150 149.5,-144 155.5,-144 155.5,-144 261.5,-144 261.5,-144 267.5,-144 273.5,-150 273.5,-156 273.5,-156 273.5,-168 273.5,-168 273.5,-174 267.5,-180 261.5,-180"/>
<text text-anchor="middle" x="208.5" y="-159.5" font-family="sans" font-size="10.00">process_combotherapy</text>
</g>
<!-- 3&#45;&gt;1 -->
<g id="edge4" class="edge">
<title>3&#45;&gt;1</title>
<path fill="none" stroke="grey" stroke-width="2" d="M190.46,-143.7C181.44,-135.05 170.38,-124.45 160.56,-115.03"/>
<polygon fill="grey" stroke="grey" stroke-width="2" points="162.98,-112.5 153.34,-108.1 158.13,-117.55 162.98,-112.5"/>
</g>
<!-- 4 -->
<g id="node5" class="node">
<title>4</title>
<path fill="none" stroke="#d85656" stroke-width="2" d="M235,-108C235,-108 200,-108 200,-108 194,-108 188,-102 188,-96 188,-96 188,-84 188,-84 188,-78 194,-72 200,-72 200,-72 235,-72 235,-72 241,-72 247,-78 247,-84 247,-84 247,-96 247,-96 247,-102 241,-108 235,-108"/>
<text text-anchor="middle" x="217.5" y="-87.5" font-family="sans" font-size="10.00">get_MAE</text>
</g>
<!-- 4&#45;&gt;0 -->
<g id="edge2" class="edge">
<title>4&#45;&gt;0</title>
<path fill="none" stroke="grey" stroke-width="2" d="M207.37,-71.7C202.65,-63.64 196.94,-53.89 191.72,-44.98"/>
<polygon fill="grey" stroke="grey" stroke-width="2" points="194.59,-42.96 186.52,-36.1 188.55,-46.5 194.59,-42.96"/>
</g>
</g>
</svg>
