<?xml version="1.0" encoding="UTF-8" standalone="no"?>
<!DOCTYPE svg PUBLIC "-//W3C//DTD SVG 1.1//EN"
 "http://www.w3.org/Graphics/SVG/1.1/DTD/svg11.dtd">
<!-- Generated by graphviz version 2.43.0 (0)
 -->
<!-- Title: snakemake_dag Pages: 1 -->
<svg width="1206pt" height="548pt"
 viewBox="0.00 0.00 1205.50 548.00" xmlns="http://www.w3.org/2000/svg" xmlns:xlink="http://www.w3.org/1999/xlink">
<g id="graph0" class="graph" transform="scale(1 1) rotate(0) translate(4 544)">
<title>snakemake_dag</title>
<polygon fill="white" stroke="transparent" points="-4,4 -4,-544 1201.5,-544 1201.5,4 -4,4"/>
<!-- 0 -->
<g id="node1" class="node">
<title>0</title>
<text text-anchor="start" x="559" y="-147.6" font-family="sans" font-weight="bold" font-size="18.00">make_PSET</text>
<text text-anchor="start" x="522.5" y="-123.8" font-family="sans" font-size="10.00"> </text>
<text text-anchor="start" x="526.5" y="-123.8" font-family="sans" font-weight="bold" font-size="14.00">↪ input</text>
<text text-anchor="start" x="584.5" y="-123.8" font-family="sans" font-size="10.00"> </text>
<text text-anchor="start" x="522.5" y="-104" font-family="monospace" font-size="10.00">procdata/TCL38_MAE.RDS</text>
<text text-anchor="start" x="522.5" y="-86" font-family="monospace" font-size="10.00">procdata/TCL38_TRE.RDS</text>
<text text-anchor="start" x="522.5" y="-68" font-family="monospace" font-size="10.00">procdata/sample&#45;metadata.csv</text>
<text text-anchor="start" x="522.5" y="-50" font-family="monospace" font-size="10.00">procdata/treatment&#45;metadata.csv</text>
<text text-anchor="start" x="631.5" y="-29.8" font-family="sans" font-size="10.00"> </text>
<text text-anchor="start" x="635.5" y="-29.8" font-family="sans" font-weight="bold" font-size="14.00">output →</text>
<text text-anchor="start" x="705.5" y="-29.8" font-family="sans" font-size="10.00"> </text>
<text text-anchor="start" x="522.5" y="-10" font-family="monospace" font-size="10.00">results/TCL38_PSet.RDS</text>
<polygon fill="#d9d957" stroke="#d9d957" points="516.5,-138 516.5,-138 716.5,-138 716.5,-138 516.5,-138"/>
<polygon fill="#d9d957" stroke="#d9d957" points="516.5,-44 516.5,-44 716.5,-44 716.5,-44 516.5,-44"/>
<polygon fill="none" stroke="#d9d957" stroke-width="2" points="516,-1 516,-167 715,-167 715,-1 516,-1"/>
</g>
<!-- 1 -->
<g id="node2" class="node">
<title>1</title>
<text text-anchor="start" x="68.5" y="-342.6" font-family="sans" font-weight="bold" font-size="18.00">make_TRE</text>
<text text-anchor="start" x="7.5" y="-318.8" font-family="sans" font-size="10.00"> </text>
<text text-anchor="start" x="11.5" y="-318.8" font-family="sans" font-weight="bold" font-size="14.00">↪ input</text>
<text text-anchor="start" x="69.5" y="-318.8" font-family="sans" font-size="10.00"> </text>
<text text-anchor="start" x="7.5" y="-299" font-family="monospace" font-size="10.00">procdata/combo_treatment_response.csv</text>
<text text-anchor="start" x="7.5" y="-281" font-family="monospace" font-size="10.00">procdata/mono_treatment_response.csv</text>
<text text-anchor="start" x="152.5" y="-260.8" font-family="sans" font-size="10.00"> </text>
<text text-anchor="start" x="156.5" y="-260.8" font-family="sans" font-weight="bold" font-size="14.00">output →</text>
<text text-anchor="start" x="226.5" y="-260.8" font-family="sans" font-size="10.00"> </text>
<text text-anchor="start" x="7.5" y="-241" font-family="monospace" font-size="10.00">procdata/TCL38_TRE.RDS</text>
<polygon fill="#98d957" stroke="#98d957" points="1.5,-333 1.5,-333 237.5,-333 237.5,-333 1.5,-333"/>
<polygon fill="#98d957" stroke="#98d957" points="1.5,-275 1.5,-275 237.5,-275 237.5,-275 1.5,-275"/>
<polygon fill="none" stroke="#98d957" stroke-width="2" points="1,-232 1,-362 236,-362 236,-232 1,-232"/>
</g>
<!-- 1&#45;&gt;0 -->
<g id="edge3" class="edge">
<title>1&#45;&gt;0</title>
<path fill="none" stroke="grey" stroke-width="2" d="M200.47,-230.96C214.98,-221.11 230.32,-211.69 245.5,-204 328.45,-161.96 429.32,-130.7 504.77,-110.79"/>
<polygon fill="grey" stroke="grey" stroke-width="2" points="505.98,-114.09 514.78,-108.18 504.22,-107.32 505.98,-114.09"/>
</g>
<!-- 2 -->
<g id="node3" class="node">
<title>2</title>
<text text-anchor="start" x="308.5" y="-519.6" font-family="sans" font-weight="bold" font-size="18.00">process_monotherapy</text>
<text text-anchor="start" x="226.5" y="-495.8" font-family="sans" font-size="10.00"> </text>
<text text-anchor="start" x="230.5" y="-495.8" font-family="sans" font-weight="bold" font-size="14.00">↪ input</text>
<text text-anchor="start" x="288.5" y="-495.8" font-family="sans" font-size="10.00"> </text>
<text text-anchor="start" x="226.5" y="-476" font-family="monospace" font-size="10.00">rawdata/2024&#45;10&#45;09&#45;drugscreening/DSS/DSS_all_corrected_TC38.xlsx</text>
<text text-anchor="start" x="533.5" y="-455.8" font-family="sans" font-size="10.00"> </text>
<text text-anchor="start" x="537.5" y="-455.8" font-family="sans" font-weight="bold" font-size="14.00">output →</text>
<text text-anchor="start" x="607.5" y="-455.8" font-family="sans" font-size="10.00"> </text>
<text text-anchor="start" x="226.5" y="-436" font-family="monospace" font-size="10.00">procdata/mono_treatment_response.csv</text>
<polygon fill="#5798d9" stroke="#5798d9" points="220.5,-510 220.5,-510 618.5,-510 618.5,-510 220.5,-510"/>
<polygon fill="#5798d9" stroke="#5798d9" points="220.5,-470 220.5,-470 618.5,-470 618.5,-470 220.5,-470"/>
<polygon fill="none" stroke="#5798d9" stroke-width="2" points="220,-427 220,-539 617,-539 617,-427 220,-427"/>
</g>
<!-- 2&#45;&gt;1 -->
<g id="edge6" class="edge">
<title>2&#45;&gt;1</title>
<path fill="none" stroke="grey" stroke-width="2" d="M307.39,-425.84C286.53,-414.48 265.13,-402.24 245.5,-390 235.02,-383.46 224.27,-376.35 213.66,-369.08"/>
<polygon fill="grey" stroke="grey" stroke-width="2" points="215.41,-366.03 205.2,-363.21 211.43,-371.79 215.41,-366.03"/>
</g>
<!-- 6 -->
<g id="node7" class="node">
<title>6</title>
<text text-anchor="start" x="930.5" y="-351.6" font-family="sans" font-weight="bold" font-size="18.00">make_treatmentMetadata</text>
<text text-anchor="start" x="930.5" y="-327.8" font-family="sans" font-size="10.00"> </text>
<text text-anchor="start" x="934.5" y="-327.8" font-family="sans" font-weight="bold" font-size="14.00">↪ input</text>
<text text-anchor="start" x="992.5" y="-327.8" font-family="sans" font-size="10.00"> </text>
<text text-anchor="start" x="930.5" y="-308" font-family="monospace" font-size="10.00">metadata/ZIPsynergyTCL38.RDS</text>
<text text-anchor="start" x="930.5" y="-290" font-family="monospace" font-size="10.00">procdata/combo_treatment_response.csv</text>
<text text-anchor="start" x="930.5" y="-272" font-family="monospace" font-size="10.00">procdata/mono_treatment_response.csv</text>
<text text-anchor="start" x="1112.5" y="-251.8" font-family="sans" font-size="10.00"> </text>
<text text-anchor="start" x="1116.5" y="-251.8" font-family="sans" font-weight="bold" font-size="14.00">output →</text>
<text text-anchor="start" x="1186.5" y="-251.8" font-family="sans" font-size="10.00"> </text>
<text text-anchor="start" x="930.5" y="-232" font-family="monospace" font-size="10.00">procdata/treatment&#45;metadata.csv</text>
<polygon fill="#57d998" stroke="#57d998" points="924.5,-342 924.5,-342 1197.5,-342 1197.5,-342 924.5,-342"/>
<polygon fill="#57d998" stroke="#57d998" points="924.5,-266 924.5,-266 1197.5,-266 1197.5,-266 924.5,-266"/>
<polygon fill="none" stroke="#57d998" stroke-width="2" points="924.5,-223 924.5,-371 1196.5,-371 1196.5,-223 924.5,-223"/>
</g>
<!-- 2&#45;&gt;6 -->
<g id="edge8" class="edge">
<title>2&#45;&gt;6</title>
<path fill="none" stroke="grey" stroke-width="2" d="M618.18,-452.64C731.05,-434.52 860,-410.84 913.5,-390 923.38,-386.15 933.32,-381.62 943.13,-376.67"/>
<polygon fill="grey" stroke="grey" stroke-width="2" points="944.83,-379.73 952.08,-372.01 941.6,-373.52 944.83,-379.73"/>
</g>
<!-- 3 -->
<g id="node4" class="node">
<title>3</title>
<text text-anchor="start" x="793.5" y="-519.6" font-family="sans" font-weight="bold" font-size="18.00">process_combotherapy</text>
<text text-anchor="start" x="793.5" y="-495.8" font-family="sans" font-size="10.00"> </text>
<text text-anchor="start" x="797.5" y="-495.8" font-family="sans" font-weight="bold" font-size="14.00">↪ input</text>
<text text-anchor="start" x="855.5" y="-495.8" font-family="sans" font-size="10.00"> </text>
<text text-anchor="start" x="793.5" y="-476" font-family="monospace" font-size="10.00">rawdata/ViabilityCombinationsTCL38.zip</text>
<text text-anchor="start" x="947.5" y="-455.8" font-family="sans" font-size="10.00"> </text>
<text text-anchor="start" x="951.5" y="-455.8" font-family="sans" font-weight="bold" font-size="14.00">output →</text>
<text text-anchor="start" x="1021.5" y="-455.8" font-family="sans" font-size="10.00"> </text>
<text text-anchor="start" x="793.5" y="-436" font-family="monospace" font-size="10.00">procdata/combo_treatment_response.csv</text>
<polygon fill="#57d9d9" stroke="#57d9d9" points="787.5,-510 787.5,-510 1032.5,-510 1032.5,-510 787.5,-510"/>
<polygon fill="#57d9d9" stroke="#57d9d9" points="787.5,-470 787.5,-470 1032.5,-470 1032.5,-470 787.5,-470"/>
<polygon fill="none" stroke="#57d9d9" stroke-width="2" points="787.5,-427 787.5,-539 1031.5,-539 1031.5,-427 787.5,-427"/>
</g>
<!-- 3&#45;&gt;1 -->
<g id="edge5" class="edge">
<title>3&#45;&gt;1</title>
<path fill="none" stroke="grey" stroke-width="2" d="M786.34,-454.81C736.85,-444.63 679.16,-433.68 626.5,-426 458.19,-401.46 404.65,-450.01 245.5,-390 231.19,-384.6 217.04,-377.14 203.67,-368.78"/>
<polygon fill="grey" stroke="grey" stroke-width="2" points="205.3,-365.67 195,-363.18 201.5,-371.55 205.3,-365.67"/>
</g>
<!-- 3&#45;&gt;6 -->
<g id="edge7" class="edge">
<title>3&#45;&gt;6</title>
<path fill="none" stroke="grey" stroke-width="2" d="M955.63,-425.79C967.44,-411.39 980.4,-395.61 993.05,-380.19"/>
<polygon fill="grey" stroke="grey" stroke-width="2" points="995.99,-382.13 999.63,-372.18 990.58,-377.69 995.99,-382.13"/>
</g>
<!-- 4 -->
<g id="node5" class="node">
<title>4</title>
<text text-anchor="start" x="405.5" y="-369.6" font-family="sans" font-weight="bold" font-size="18.00">get_MAE</text>
<text text-anchor="start" x="262.5" y="-345.8" font-family="sans" font-size="10.00"> </text>
<text text-anchor="start" x="266.5" y="-345.8" font-family="sans" font-weight="bold" font-size="14.00">↪ input</text>
<text text-anchor="start" x="324.5" y="-345.8" font-family="sans" font-size="10.00"> </text>
<text text-anchor="start" x="262.5" y="-326" font-family="monospace" font-size="10.00">metadata/sample&#45;metadata.xlsx</text>
<text text-anchor="start" x="262.5" y="-308" font-family="monospace" font-size="10.00">rawdata/RDSobjects/TCL_RNA.RDS</text>
<text text-anchor="start" x="262.5" y="-290" font-family="monospace" font-size="10.00">rawdata/RDSobjects/VariantCallsTCL.RDS</text>
<text text-anchor="start" x="262.5" y="-272" font-family="monospace" font-size="10.00">rawdata/RDSobjects/aCGH.RDS</text>
<text text-anchor="start" x="262.5" y="-254" font-family="monospace" font-size="10.00">rawdata/RDSobjects/atac2_transformed_rnagene_peaks_all_TSS.RDS</text>
<text text-anchor="start" x="557.5" y="-233.8" font-family="sans" font-size="10.00"> </text>
<text text-anchor="start" x="561.5" y="-233.8" font-family="sans" font-weight="bold" font-size="14.00">output →</text>
<text text-anchor="start" x="631.5" y="-233.8" font-family="sans" font-size="10.00"> </text>
<text text-anchor="start" x="262.5" y="-214" font-family="monospace" font-size="10.00">procdata/TCL38_MAE.RDS</text>
<polygon fill="#d99857" stroke="#d99857" points="256.5,-360 256.5,-360 642.5,-360 642.5,-360 256.5,-360"/>
<polygon fill="#d99857" stroke="#d99857" points="256.5,-248 256.5,-248 642.5,-248 642.5,-248 256.5,-248"/>
<polygon fill="none" stroke="#d99857" stroke-width="2" points="256,-205 256,-389 641,-389 641,-205 256,-205"/>
</g>
<!-- 4&#45;&gt;0 -->
<g id="edge2" class="edge">
<title>4&#45;&gt;0</title>
<path fill="none" stroke="grey" stroke-width="2" d="M521.51,-203.76C528.77,-194.58 536.14,-185.27 543.39,-176.1"/>
<polygon fill="grey" stroke="grey" stroke-width="2" points="546.27,-178.11 549.73,-168.09 540.78,-173.76 546.27,-178.11"/>
</g>
<!-- 5 -->
<g id="node6" class="node">
<title>5</title>
<text text-anchor="start" x="667.5" y="-333.6" font-family="sans" font-weight="bold" font-size="18.00">make_sampleMetadata</text>
<text text-anchor="start" x="667.5" y="-309.8" font-family="sans" font-size="10.00"> </text>
<text text-anchor="start" x="671.5" y="-309.8" font-family="sans" font-weight="bold" font-size="14.00">↪ input</text>
<text text-anchor="start" x="729.5" y="-309.8" font-family="sans" font-size="10.00"> </text>
<text text-anchor="start" x="667.5" y="-290" font-family="monospace" font-size="10.00">metadata/sample&#45;metadata.xlsx</text>
<text text-anchor="start" x="820.5" y="-269.8" font-family="sans" font-size="10.00"> </text>
<text text-anchor="start" x="824.5" y="-269.8" font-family="sans" font-weight="bold" font-size="14.00">output →</text>
<text text-anchor="start" x="894.5" y="-269.8" font-family="sans" font-size="10.00"> </text>
<text text-anchor="start" x="667.5" y="-250" font-family="monospace" font-size="10.00">procdata/sample&#45;metadata.csv</text>
<polygon fill="#57d957" stroke="#57d957" points="661.5,-324 661.5,-324 905.5,-324 905.5,-324 661.5,-324"/>
<polygon fill="#57d957" stroke="#57d957" points="661.5,-284 661.5,-284 905.5,-284 905.5,-284 661.5,-284"/>
<polygon fill="none" stroke="#57d957" stroke-width="2" points="661,-241 661,-353 904,-353 904,-241 661,-241"/>
</g>
<!-- 5&#45;&gt;0 -->
<g id="edge1" class="edge">
<title>5&#45;&gt;0</title>
<path fill="none" stroke="grey" stroke-width="2" d="M737.97,-239.73C722.48,-220.16 704.68,-197.68 687.54,-176.02"/>
<polygon fill="grey" stroke="grey" stroke-width="2" points="690.21,-173.76 681.26,-168.09 684.72,-178.1 690.21,-173.76"/>
</g>
<!-- 6&#45;&gt;0 -->
<g id="edge4" class="edge">
<title>6&#45;&gt;0</title>
<path fill="none" stroke="grey" stroke-width="2" d="M946.49,-221.91C935.49,-215.59 924.37,-209.52 913.5,-204 853.03,-173.32 782.69,-144.91 725.54,-123.55"/>
<polygon fill="grey" stroke="grey" stroke-width="2" points="726.72,-120.25 716.12,-120.05 724.28,-126.81 726.72,-120.25"/>
</g>
</g>
</svg>
