<?xml version="1.0" encoding="UTF-8" standalone="no"?>
<!DOCTYPE svg PUBLIC "-//W3C//DTD SVG 1.1//EN"
 "http://www.w3.org/Graphics/SVG/1.1/DTD/svg11.dtd">
<!-- Generated by graphviz version 2.43.0 (0)
 -->
<!-- Title: snakemake_dag Pages: 1 -->
<svg width="901pt" height="512pt"
 viewBox="0.00 0.00 901.00 512.00" xmlns="http://www.w3.org/2000/svg" xmlns:xlink="http://www.w3.org/1999/xlink">
<g id="graph0" class="graph" transform="scale(1 1) rotate(0) translate(4 508)">
<title>snakemake_dag</title>
<polygon fill="white" stroke="transparent" points="-4,4 -4,-508 897,-508 897,4 -4,4"/>
<!-- 0 -->
<g id="node1" class="node">
<title>0</title>
<text text-anchor="start" x="478" y="-111.6" font-family="sans" font-weight="bold" font-size="18.00">make_PSET</text>
<text text-anchor="start" x="465.5" y="-87.8" font-family="sans" font-size="10.00"> </text>
<text text-anchor="start" x="469.5" y="-87.8" font-family="sans" font-weight="bold" font-size="14.00">↪ input</text>
<text text-anchor="start" x="527.5" y="-87.8" font-family="sans" font-size="10.00"> </text>
<text text-anchor="start" x="465.5" y="-68" font-family="monospace" font-size="10.00">procdata/TCL38_MAE.RDS</text>
<text text-anchor="start" x="465.5" y="-50" font-family="monospace" font-size="10.00">procdata/TCL38_TRE.RDS</text>
<text text-anchor="start" x="526.5" y="-29.8" font-family="sans" font-size="10.00"> </text>
<text text-anchor="start" x="530.5" y="-29.8" font-family="sans" font-weight="bold" font-size="14.00">output →</text>
<text text-anchor="start" x="600.5" y="-29.8" font-family="sans" font-size="10.00"> </text>
<text text-anchor="start" x="465.5" y="-10" font-family="monospace" font-size="10.00">procdata/TCL38_pset.RDS</text>
<polygon fill="#d9bf57" stroke="#d9bf57" points="459.5,-102 459.5,-102 611.5,-102 611.5,-102 459.5,-102"/>
<polygon fill="#d9bf57" stroke="#d9bf57" points="459.5,-44 459.5,-44 611.5,-44 611.5,-44 459.5,-44"/>
<polygon fill="none" stroke="#d9bf57" stroke-width="2" points="459,-1 459,-131 610,-131 610,-1 459,-1"/>
</g>
<!-- 1 -->
<g id="node2" class="node">
<title>1</title>
<text text-anchor="start" x="319.5" y="-306.6" font-family="sans" font-weight="bold" font-size="18.00">make_TRE</text>
<text text-anchor="start" x="258.5" y="-282.8" font-family="sans" font-size="10.00"> </text>
<text text-anchor="start" x="262.5" y="-282.8" font-family="sans" font-weight="bold" font-size="14.00">↪ input</text>
<text text-anchor="start" x="320.5" y="-282.8" font-family="sans" font-size="10.00"> </text>
<text text-anchor="start" x="258.5" y="-263" font-family="monospace" font-size="10.00">procdata/combo_treatment_response.csv</text>
<text text-anchor="start" x="258.5" y="-245" font-family="monospace" font-size="10.00">procdata/mono_treatment_response.csv</text>
<text text-anchor="start" x="403.5" y="-224.8" font-family="sans" font-size="10.00"> </text>
<text text-anchor="start" x="407.5" y="-224.8" font-family="sans" font-weight="bold" font-size="14.00">output →</text>
<text text-anchor="start" x="477.5" y="-224.8" font-family="sans" font-size="10.00"> </text>
<text text-anchor="start" x="258.5" y="-205" font-family="monospace" font-size="10.00">procdata/TCL38_TRE.RDS</text>
<polygon fill="#8bd957" stroke="#8bd957" points="252.5,-297 252.5,-297 488.5,-297 488.5,-297 252.5,-297"/>
<polygon fill="#8bd957" stroke="#8bd957" points="252.5,-239 252.5,-239 488.5,-239 488.5,-239 252.5,-239"/>
<polygon fill="none" stroke="#8bd957" stroke-width="2" points="252,-196 252,-326 487,-326 487,-196 252,-196"/>
</g>
<!-- 1&#45;&gt;0 -->
<g id="edge1" class="edge">
<title>1&#45;&gt;0</title>
<path fill="none" stroke="grey" stroke-width="2" d="M425.13,-194.93C440.28,-177.21 456.78,-157.91 472.26,-139.8"/>
<polygon fill="grey" stroke="grey" stroke-width="2" points="474.99,-141.99 478.83,-132.12 469.67,-137.44 474.99,-141.99"/>
</g>
<!-- 2 -->
<g id="node3" class="node">
<title>2</title>
<text text-anchor="start" x="89.5" y="-483.6" font-family="sans" font-weight="bold" font-size="18.00">process_monotherapy</text>
<text text-anchor="start" x="7.5" y="-459.8" font-family="sans" font-size="10.00"> </text>
<text text-anchor="start" x="11.5" y="-459.8" font-family="sans" font-weight="bold" font-size="14.00">↪ input</text>
<text text-anchor="start" x="69.5" y="-459.8" font-family="sans" font-size="10.00"> </text>
<text text-anchor="start" x="7.5" y="-440" font-family="monospace" font-size="10.00">rawdata/2024&#45;10&#45;09&#45;drugscreening/DSS/DSS_all_corrected_TC38.xlsx</text>
<text text-anchor="start" x="314.5" y="-419.8" font-family="sans" font-size="10.00"> </text>
<text text-anchor="start" x="318.5" y="-419.8" font-family="sans" font-weight="bold" font-size="14.00">output →</text>
<text text-anchor="start" x="388.5" y="-419.8" font-family="sans" font-size="10.00"> </text>
<text text-anchor="start" x="7.5" y="-400" font-family="monospace" font-size="10.00">procdata/mono_treatment_response.csv</text>
<polygon fill="#57bfd9" stroke="#57bfd9" points="1.5,-474 1.5,-474 399.5,-474 399.5,-474 1.5,-474"/>
<polygon fill="#57bfd9" stroke="#57bfd9" points="1.5,-434 1.5,-434 399.5,-434 399.5,-434 1.5,-434"/>
<polygon fill="none" stroke="#57bfd9" stroke-width="2" points="1,-391 1,-503 398,-503 398,-391 1,-391"/>
</g>
<!-- 2&#45;&gt;1 -->
<g id="edge4" class="edge">
<title>2&#45;&gt;1</title>
<path fill="none" stroke="grey" stroke-width="2" d="M251.43,-389.79C267.41,-372.5 285.23,-353.21 302.09,-334.96"/>
<polygon fill="grey" stroke="grey" stroke-width="2" points="305.03,-336.94 309.25,-327.22 299.89,-332.19 305.03,-336.94"/>
</g>
<!-- 3 -->
<g id="node4" class="node">
<title>3</title>
<text text-anchor="start" x="424.5" y="-483.6" font-family="sans" font-weight="bold" font-size="18.00">process_combotherapy</text>
<text text-anchor="start" x="424.5" y="-459.8" font-family="sans" font-size="10.00"> </text>
<text text-anchor="start" x="428.5" y="-459.8" font-family="sans" font-weight="bold" font-size="14.00">↪ input</text>
<text text-anchor="start" x="486.5" y="-459.8" font-family="sans" font-size="10.00"> </text>
<text text-anchor="start" x="424.5" y="-440" font-family="monospace" font-size="10.00">rawdata/ViabilityCombinationsTCL38.zip</text>
<text text-anchor="start" x="578.5" y="-419.8" font-family="sans" font-size="10.00"> </text>
<text text-anchor="start" x="582.5" y="-419.8" font-family="sans" font-weight="bold" font-size="14.00">output →</text>
<text text-anchor="start" x="652.5" y="-419.8" font-family="sans" font-size="10.00"> </text>
<text text-anchor="start" x="424.5" y="-400" font-family="monospace" font-size="10.00">procdata/combo_treatment_response.csv</text>
<polygon fill="#57d98b" stroke="#57d98b" points="418.5,-474 418.5,-474 663.5,-474 663.5,-474 418.5,-474"/>
<polygon fill="#57d98b" stroke="#57d98b" points="418.5,-434 418.5,-434 663.5,-434 663.5,-434 418.5,-434"/>
<polygon fill="none" stroke="#57d98b" stroke-width="2" points="418.5,-391 418.5,-503 662.5,-503 662.5,-391 418.5,-391"/>
</g>
<!-- 3&#45;&gt;1 -->
<g id="edge3" class="edge">
<title>3&#45;&gt;1</title>
<path fill="none" stroke="grey" stroke-width="2" d="M488.27,-389.79C472.19,-372.5 454.27,-353.21 437.31,-334.96"/>
<polygon fill="grey" stroke="grey" stroke-width="2" points="439.48,-332.16 430.11,-327.22 434.35,-336.92 439.48,-332.16"/>
</g>
<!-- 4 -->
<g id="node5" class="node">
<title>4</title>
<text text-anchor="start" x="656.5" y="-333.6" font-family="sans" font-weight="bold" font-size="18.00">get_MAE</text>
<text text-anchor="start" x="513.5" y="-309.8" font-family="sans" font-size="10.00"> </text>
<text text-anchor="start" x="517.5" y="-309.8" font-family="sans" font-weight="bold" font-size="14.00">↪ input</text>
<text text-anchor="start" x="575.5" y="-309.8" font-family="sans" font-size="10.00"> </text>
<text text-anchor="start" x="513.5" y="-290" font-family="monospace" font-size="10.00">metadata/sample&#45;metadata.xlsx</text>
<text text-anchor="start" x="513.5" y="-272" font-family="monospace" font-size="10.00">rawdata/RDSobjects/TCL_RNA.RDS</text>
<text text-anchor="start" x="513.5" y="-254" font-family="monospace" font-size="10.00">rawdata/RDSobjects/VariantCallsTCL.RDS</text>
<text text-anchor="start" x="513.5" y="-236" font-family="monospace" font-size="10.00">rawdata/RDSobjects/aCGH.RDS</text>
<text text-anchor="start" x="513.5" y="-218" font-family="monospace" font-size="10.00">rawdata/RDSobjects/atac2_transformed_rnagene_peaks_all_TSS.RDS</text>
<text text-anchor="start" x="808.5" y="-197.8" font-family="sans" font-size="10.00"> </text>
<text text-anchor="start" x="812.5" y="-197.8" font-family="sans" font-weight="bold" font-size="14.00">output →</text>
<text text-anchor="start" x="882.5" y="-197.8" font-family="sans" font-size="10.00"> </text>
<text text-anchor="start" x="513.5" y="-178" font-family="monospace" font-size="10.00">procdata/TCL38_MAE.RDS</text>
<polygon fill="#d95757" stroke="#d95757" points="507.5,-324 507.5,-324 893.5,-324 893.5,-324 507.5,-324"/>
<polygon fill="#d95757" stroke="#d95757" points="507.5,-212 507.5,-212 893.5,-212 893.5,-212 507.5,-212"/>
<polygon fill="none" stroke="#d95757" stroke-width="2" points="507,-169 507,-353 892,-353 892,-169 507,-169"/>
</g>
<!-- 4&#45;&gt;0 -->
<g id="edge2" class="edge">
<title>4&#45;&gt;0</title>
<path fill="none" stroke="grey" stroke-width="2" d="M620.62,-167.74C612.68,-158.44 604.69,-149.1 596.95,-140.04"/>
<polygon fill="grey" stroke="grey" stroke-width="2" points="599.37,-137.5 590.22,-132.17 594.05,-142.05 599.37,-137.5"/>
</g>
</g>
</svg>
