<?xml version="1.0" encoding="UTF-8" standalone="no"?>
<!DOCTYPE svg PUBLIC "-//W3C//DTD SVG 1.1//EN"
 "http://www.w3.org/Graphics/SVG/1.1/DTD/svg11.dtd">
<!-- Generated by graphviz version 2.43.0 (0)
 -->
<!-- Title: snakemake_dag Pages: 1 -->
<svg width="1023pt" height="912pt"
 viewBox="0.00 0.00 1022.50 912.00" xmlns="http://www.w3.org/2000/svg" xmlns:xlink="http://www.w3.org/1999/xlink">
<g id="graph0" class="graph" transform="scale(1 1) rotate(0) translate(4 908)">
<title>snakemake_dag</title>
<polygon fill="white" stroke="transparent" points="-4,4 -4,-908 1018.5,-908 1018.5,4 -4,4"/>
<!-- 0 -->
<g id="node1" class="node">
<title>0</title>
<text text-anchor="start" x="459.5" y="-147.6" font-family="sans" font-weight="bold" font-size="18.00">make_PSET</text>
<text text-anchor="start" x="423" y="-123.8" font-family="sans" font-size="10.00"> </text>
<text text-anchor="start" x="427" y="-123.8" font-family="sans" font-weight="bold" font-size="14.00">↪ input</text>
<text text-anchor="start" x="485" y="-123.8" font-family="sans" font-size="10.00"> </text>
<text text-anchor="start" x="423" y="-104" font-family="monospace" font-size="10.00">procdata/TCL38_MAE.RDS</text>
<text text-anchor="start" x="423" y="-86" font-family="monospace" font-size="10.00">procdata/TCL38_TRE.RDS</text>
<text text-anchor="start" x="423" y="-68" font-family="monospace" font-size="10.00">procdata/sample&#45;metadata.csv</text>
<text text-anchor="start" x="423" y="-50" font-family="monospace" font-size="10.00">procdata/treatment&#45;metadata.csv</text>
<text text-anchor="start" x="532" y="-29.8" font-family="sans" font-size="10.00"> </text>
<text text-anchor="start" x="536" y="-29.8" font-family="sans" font-weight="bold" font-size="14.00">output →</text>
<text text-anchor="start" x="606" y="-29.8" font-family="sans" font-size="10.00"> </text>
<text text-anchor="start" x="423" y="-10" font-family="monospace" font-size="10.00">results/TCL38_PSet.RDS</text>
<polygon fill="#57d957" stroke="#57d957" points="417,-138 417,-138 617,-138 617,-138 417,-138"/>
<polygon fill="#57d957" stroke="#57d957" points="417,-44 417,-44 617,-44 617,-44 417,-44"/>
<polygon fill="none" stroke="#57d957" stroke-width="2" points="416.5,-1 416.5,-167 615.5,-167 615.5,-1 416.5,-1"/>
</g>
<!-- 1 -->
<g id="node2" class="node">
<title>1</title>
<text text-anchor="start" x="393" y="-324.6" font-family="sans" font-weight="bold" font-size="18.00">make_TRE</text>
<text text-anchor="start" x="332" y="-300.8" font-family="sans" font-size="10.00"> </text>
<text text-anchor="start" x="336" y="-300.8" font-family="sans" font-weight="bold" font-size="14.00">↪ input</text>
<text text-anchor="start" x="394" y="-300.8" font-family="sans" font-size="10.00"> </text>
<text text-anchor="start" x="332" y="-281" font-family="monospace" font-size="10.00">procdata/combo_treatment_response.csv</text>
<text text-anchor="start" x="332" y="-263" font-family="monospace" font-size="10.00">procdata/mono_treatment_response.csv</text>
<text text-anchor="start" x="477" y="-242.8" font-family="sans" font-size="10.00"> </text>
<text text-anchor="start" x="481" y="-242.8" font-family="sans" font-weight="bold" font-size="14.00">output →</text>
<text text-anchor="start" x="551" y="-242.8" font-family="sans" font-size="10.00"> </text>
<text text-anchor="start" x="332" y="-223" font-family="monospace" font-size="10.00">procdata/TCL38_TRE.RDS</text>
<polygon fill="#57d982" stroke="#57d982" points="326,-315 326,-315 562,-315 562,-315 326,-315"/>
<polygon fill="#57d982" stroke="#57d982" points="326,-257 326,-257 562,-257 562,-257 326,-257"/>
<polygon fill="none" stroke="#57d982" stroke-width="2" points="325.5,-214 325.5,-344 560.5,-344 560.5,-214 325.5,-214"/>
</g>
<!-- 1&#45;&gt;0 -->
<g id="edge1" class="edge">
<title>1&#45;&gt;0</title>
<path fill="none" stroke="grey" stroke-width="2" d="M467.61,-212.93C471.89,-201.62 476.41,-189.66 480.91,-177.77"/>
<polygon fill="grey" stroke="grey" stroke-width="2" points="484.24,-178.87 484.5,-168.27 477.69,-176.39 484.24,-178.87"/>
</g>
<!-- 2 -->
<g id="node3" class="node">
<title>2</title>
<text text-anchor="start" x="334" y="-528.6" font-family="sans" font-weight="bold" font-size="18.00">process_monotherapy</text>
<text text-anchor="start" x="334" y="-504.8" font-family="sans" font-size="10.00"> </text>
<text text-anchor="start" x="338" y="-504.8" font-family="sans" font-weight="bold" font-size="14.00">↪ input</text>
<text text-anchor="start" x="396" y="-504.8" font-family="sans" font-size="10.00"> </text>
<text text-anchor="start" x="334" y="-485" font-family="monospace" font-size="10.00">procdata/sample&#45;metadata.csv</text>
<text text-anchor="start" x="334" y="-467" font-family="monospace" font-size="10.00">rawdata/DSS_all_corrected_TC38.xlsx</text>
<text text-anchor="start" x="477" y="-446.8" font-family="sans" font-size="10.00"> </text>
<text text-anchor="start" x="481" y="-446.8" font-family="sans" font-weight="bold" font-size="14.00">output →</text>
<text text-anchor="start" x="551" y="-446.8" font-family="sans" font-size="10.00"> </text>
<text text-anchor="start" x="334" y="-427" font-family="monospace" font-size="10.00">procdata/mono_treatment_response.csv</text>
<polygon fill="#5782d9" stroke="#5782d9" points="328,-519 328,-519 562,-519 562,-519 328,-519"/>
<polygon fill="#5782d9" stroke="#5782d9" points="328,-461 328,-461 562,-461 562,-461 328,-461"/>
<polygon fill="none" stroke="#5782d9" stroke-width="2" points="327.5,-418 327.5,-548 560.5,-548 560.5,-418 327.5,-418"/>
</g>
<!-- 2&#45;&gt;1 -->
<g id="edge6" class="edge">
<title>2&#45;&gt;1</title>
<path fill="none" stroke="grey" stroke-width="2" d="M443.68,-416.97C443.58,-397.34 443.47,-375.62 443.37,-355.37"/>
<polygon fill="grey" stroke="grey" stroke-width="2" points="446.87,-355.23 443.32,-345.25 439.87,-355.27 446.87,-355.23"/>
</g>
<!-- 9 -->
<g id="node10" class="node">
<title>9</title>
<text text-anchor="start" x="39" y="-333.6" font-family="sans" font-weight="bold" font-size="18.00">make_treatmentMetadata</text>
<text text-anchor="start" x="39" y="-309.8" font-family="sans" font-size="10.00"> </text>
<text text-anchor="start" x="43" y="-309.8" font-family="sans" font-weight="bold" font-size="14.00">↪ input</text>
<text text-anchor="start" x="101" y="-309.8" font-family="sans" font-size="10.00"> </text>
<text text-anchor="start" x="39" y="-290" font-family="monospace" font-size="10.00">metadata/ZIPsynergyTCL38.RDS</text>
<text text-anchor="start" x="39" y="-272" font-family="monospace" font-size="10.00">procdata/combo_treatment_response.csv</text>
<text text-anchor="start" x="39" y="-254" font-family="monospace" font-size="10.00">procdata/mono_treatment_response.csv</text>
<text text-anchor="start" x="221" y="-233.8" font-family="sans" font-size="10.00"> </text>
<text text-anchor="start" x="225" y="-233.8" font-family="sans" font-weight="bold" font-size="14.00">output →</text>
<text text-anchor="start" x="295" y="-233.8" font-family="sans" font-size="10.00"> </text>
<text text-anchor="start" x="39" y="-214" font-family="monospace" font-size="10.00">procdata/treatment&#45;metadata.csv</text>
<polygon fill="#57d9d9" stroke="#57d9d9" points="33,-324 33,-324 306,-324 306,-324 33,-324"/>
<polygon fill="#57d9d9" stroke="#57d9d9" points="33,-248 33,-248 306,-248 306,-248 33,-248"/>
<polygon fill="none" stroke="#57d9d9" stroke-width="2" points="33,-205 33,-353 305,-353 305,-205 33,-205"/>
</g>
<!-- 2&#45;&gt;9 -->
<g id="edge16" class="edge">
<title>2&#45;&gt;9</title>
<path fill="none" stroke="grey" stroke-width="2" d="M355.47,-416.97C330.82,-398.87 303.75,-378.98 278.07,-360.12"/>
<polygon fill="grey" stroke="grey" stroke-width="2" points="279.91,-357.13 269.78,-354.03 275.77,-362.77 279.91,-357.13"/>
</g>
<!-- 3 -->
<g id="node4" class="node">
<title>3</title>
<text text-anchor="start" x="143" y="-719.6" font-family="sans" font-weight="bold" font-size="18.00">download_treatment_data</text>
<text text-anchor="start" x="143" y="-698" font-family="sans" font-size="10.00"> &#160;</text>
<text text-anchor="start" x="327" y="-677.8" font-family="sans" font-size="10.00"> </text>
<text text-anchor="start" x="331" y="-677.8" font-family="sans" font-weight="bold" font-size="14.00">output →</text>
<text text-anchor="start" x="401" y="-677.8" font-family="sans" font-size="10.00"> </text>
<text text-anchor="start" x="143" y="-658" font-family="monospace" font-size="10.00">rawdata/DSS_all_corrected_TC38.xlsx</text>
<text text-anchor="start" x="143" y="-640" font-family="monospace" font-size="10.00">rawdata/ViabilityCombinationsTCL38.zip</text>
<polygon fill="#add957" stroke="#add957" points="137,-710 137,-710 412,-710 412,-710 137,-710"/>
<polygon fill="#add957" stroke="#add957" points="137,-692 137,-692 412,-692 412,-692 137,-692"/>
<polygon fill="none" stroke="#add957" stroke-width="2" points="137,-631 137,-739 411,-739 411,-631 137,-631"/>
</g>
<!-- 3&#45;&gt;2 -->
<g id="edge7" class="edge">
<title>3&#45;&gt;2</title>
<path fill="none" stroke="grey" stroke-width="2" d="M320,-629.88C339.08,-607.43 361.5,-581.05 382,-556.94"/>
<polygon fill="grey" stroke="grey" stroke-width="2" points="384.77,-559.09 388.58,-549.2 379.43,-554.56 384.77,-559.09"/>
</g>
<!-- 6 -->
<g id="node7" class="node">
<title>6</title>
<text text-anchor="start" x="69" y="-528.6" font-family="sans" font-weight="bold" font-size="18.00">process_combotherapy</text>
<text text-anchor="start" x="69" y="-504.8" font-family="sans" font-size="10.00"> </text>
<text text-anchor="start" x="73" y="-504.8" font-family="sans" font-weight="bold" font-size="14.00">↪ input</text>
<text text-anchor="start" x="131" y="-504.8" font-family="sans" font-size="10.00"> </text>
<text text-anchor="start" x="69" y="-485" font-family="monospace" font-size="10.00">metadata/sample&#45;metadata.xlsx</text>
<text text-anchor="start" x="69" y="-467" font-family="monospace" font-size="10.00">rawdata/ViabilityCombinationsTCL38.zip</text>
<text text-anchor="start" x="223" y="-446.8" font-family="sans" font-size="10.00"> </text>
<text text-anchor="start" x="227" y="-446.8" font-family="sans" font-weight="bold" font-size="14.00">output →</text>
<text text-anchor="start" x="297" y="-446.8" font-family="sans" font-size="10.00"> </text>
<text text-anchor="start" x="69" y="-427" font-family="monospace" font-size="10.00">procdata/combo_treatment_response.csv</text>
<polygon fill="#57add9" stroke="#57add9" points="63,-519 63,-519 308,-519 308,-519 63,-519"/>
<polygon fill="#57add9" stroke="#57add9" points="63,-461 63,-461 308,-461 308,-461 63,-461"/>
<polygon fill="none" stroke="#57add9" stroke-width="2" points="63,-418 63,-548 307,-548 307,-418 63,-418"/>
</g>
<!-- 3&#45;&gt;6 -->
<g id="edge10" class="edge">
<title>3&#45;&gt;6</title>
<path fill="none" stroke="grey" stroke-width="2" d="M249.92,-629.88C240.14,-607.92 228.7,-582.19 218.16,-558.51"/>
<polygon fill="grey" stroke="grey" stroke-width="2" points="221.28,-556.92 214.02,-549.2 214.88,-559.76 221.28,-556.92"/>
</g>
<!-- 4 -->
<g id="node5" class="node">
<title>4</title>
<text text-anchor="start" x="438" y="-721.6" font-family="sans" font-weight="bold" font-size="18.00">make_sampleMetadata</text>
<text text-anchor="start" x="438" y="-697.8" font-family="sans" font-size="10.00"> </text>
<text text-anchor="start" x="442" y="-697.8" font-family="sans" font-weight="bold" font-size="14.00">↪ input</text>
<text text-anchor="start" x="500" y="-697.8" font-family="sans" font-size="10.00"> </text>
<text text-anchor="start" x="438" y="-678" font-family="monospace" font-size="10.00">metadata/sample&#45;metadata.xlsx</text>
<text text-anchor="start" x="591" y="-657.8" font-family="sans" font-size="10.00"> </text>
<text text-anchor="start" x="595" y="-657.8" font-family="sans" font-weight="bold" font-size="14.00">output →</text>
<text text-anchor="start" x="665" y="-657.8" font-family="sans" font-size="10.00"> </text>
<text text-anchor="start" x="438" y="-638" font-family="monospace" font-size="10.00">procdata/sample&#45;metadata.csv</text>
<polygon fill="#57d9ad" stroke="#57d9ad" points="432,-712 432,-712 676,-712 676,-712 432,-712"/>
<polygon fill="#57d9ad" stroke="#57d9ad" points="432,-672 432,-672 676,-672 676,-672 432,-672"/>
<polygon fill="none" stroke="#57d9ad" stroke-width="2" points="431.5,-629 431.5,-741 674.5,-741 674.5,-629 431.5,-629"/>
</g>
<!-- 4&#45;&gt;0 -->
<g id="edge4" class="edge">
<title>4&#45;&gt;0</title>
<path fill="none" stroke="grey" stroke-width="2" d="M564.16,-627.75C580.11,-537.26 604.05,-354.27 571,-204 569.08,-195.27 566.45,-186.41 563.38,-177.68"/>
<polygon fill="grey" stroke="grey" stroke-width="2" points="566.65,-176.42 559.89,-168.26 560.08,-178.85 566.65,-176.42"/>
</g>
<!-- 4&#45;&gt;2 -->
<g id="edge8" class="edge">
<title>4&#45;&gt;2</title>
<path fill="none" stroke="grey" stroke-width="2" d="M522.35,-627.76C510.62,-606.24 497.05,-581.35 484.54,-558.39"/>
<polygon fill="grey" stroke="grey" stroke-width="2" points="487.48,-556.46 479.62,-549.36 481.33,-559.81 487.48,-556.46"/>
</g>
<!-- 7 -->
<g id="node8" class="node">
<title>7</title>
<text text-anchor="start" x="736" y="-555.6" font-family="sans" font-weight="bold" font-size="18.00">get_MAE</text>
<text text-anchor="start" x="626" y="-531.8" font-family="sans" font-size="10.00"> </text>
<text text-anchor="start" x="630" y="-531.8" font-family="sans" font-weight="bold" font-size="14.00">↪ input</text>
<text text-anchor="start" x="688" y="-531.8" font-family="sans" font-size="10.00"> </text>
<text text-anchor="start" x="626" y="-512" font-family="monospace" font-size="10.00">procdata/sample&#45;metadata.csv</text>
<text text-anchor="start" x="626" y="-494" font-family="monospace" font-size="10.00">rawdata/TCL_RNA.RDS</text>
<text text-anchor="start" x="626" y="-476" font-family="monospace" font-size="10.00">rawdata/VariantCallsTCL.RDS</text>
<text text-anchor="start" x="626" y="-458" font-family="monospace" font-size="10.00">rawdata/aCGH.RDS</text>
<text text-anchor="start" x="626" y="-440" font-family="monospace" font-size="10.00">rawdata/atac2_transformed_rnagene_peaks_all_TSS.RDS</text>
<text text-anchor="start" x="855" y="-419.8" font-family="sans" font-size="10.00"> </text>
<text text-anchor="start" x="859" y="-419.8" font-family="sans" font-weight="bold" font-size="14.00">output →</text>
<text text-anchor="start" x="929" y="-419.8" font-family="sans" font-size="10.00"> </text>
<text text-anchor="start" x="626" y="-400" font-family="monospace" font-size="10.00">procdata/TCL38_MAE.RDS</text>
<polygon fill="#82d957" stroke="#82d957" points="620,-546 620,-546 940,-546 940,-546 620,-546"/>
<polygon fill="#82d957" stroke="#82d957" points="620,-434 620,-434 940,-434 940,-434 620,-434"/>
<polygon fill="none" stroke="#82d957" stroke-width="2" points="619.5,-391 619.5,-575 938.5,-575 938.5,-391 619.5,-391"/>
</g>
<!-- 4&#45;&gt;7 -->
<g id="edge13" class="edge">
<title>4&#45;&gt;7</title>
<path fill="none" stroke="grey" stroke-width="2" d="M616.56,-627.76C632.29,-613.83 649.62,-598.49 666.93,-583.18"/>
<polygon fill="grey" stroke="grey" stroke-width="2" points="669.7,-585.4 674.87,-576.15 665.06,-580.16 669.7,-585.4"/>
</g>
<!-- 5 -->
<g id="node6" class="node">
<title>5</title>
<text text-anchor="start" x="7" y="-883.6" font-family="sans" font-weight="bold" font-size="18.00">download_metadata</text>
<text text-anchor="start" x="7" y="-862" font-family="sans" font-size="10.00"> &#160;</text>
<text text-anchor="start" x="131" y="-841.8" font-family="sans" font-size="10.00"> </text>
<text text-anchor="start" x="135" y="-841.8" font-family="sans" font-weight="bold" font-size="14.00">output →</text>
<text text-anchor="start" x="205" y="-841.8" font-family="sans" font-size="10.00"> </text>
<text text-anchor="start" x="7" y="-822" font-family="monospace" font-size="10.00">metadata/ZIPsynergyTCL38.RDS</text>
<text text-anchor="start" x="7" y="-804" font-family="monospace" font-size="10.00">metadata/sample&#45;metadata.xlsx</text>
<polygon fill="#d9ad57" stroke="#d9ad57" points="1,-874 1,-874 216,-874 216,-874 1,-874"/>
<polygon fill="#d9ad57" stroke="#d9ad57" points="1,-856 1,-856 216,-856 216,-856 1,-856"/>
<polygon fill="none" stroke="#d9ad57" stroke-width="2" points="1,-795 1,-903 215,-903 215,-795 1,-795"/>
</g>
<!-- 5&#45;&gt;4 -->
<g id="edge9" class="edge">
<title>5&#45;&gt;4</title>
<path fill="none" stroke="grey" stroke-width="2" d="M216.1,-823.16C277.33,-807.55 354.71,-785.22 421,-758 429.42,-754.54 438,-750.69 446.54,-746.61"/>
<polygon fill="grey" stroke="grey" stroke-width="2" points="448.32,-749.64 455.77,-742.11 445.25,-743.35 448.32,-749.64"/>
</g>
<!-- 5&#45;&gt;6 -->
<g id="edge11" class="edge">
<title>5&#45;&gt;6</title>
<path fill="none" stroke="grey" stroke-width="2" d="M107.11,-793.7C107.55,-745.29 111.26,-672.89 127,-612 131.61,-594.16 138.55,-575.71 146.04,-558.56"/>
<polygon fill="grey" stroke="grey" stroke-width="2" points="149.35,-559.73 150.24,-549.18 142.96,-556.87 149.35,-559.73"/>
</g>
<!-- 5&#45;&gt;9 -->
<g id="edge14" class="edge">
<title>5&#45;&gt;9</title>
<path fill="none" stroke="grey" stroke-width="2" d="M84.44,-793.98C49.57,-705.65 -5.67,-526.48 53,-390 57.15,-380.34 62.62,-371.13 68.92,-362.44"/>
<polygon fill="grey" stroke="grey" stroke-width="2" points="71.87,-364.35 75.19,-354.28 66.32,-360.08 71.87,-364.35"/>
</g>
<!-- 6&#45;&gt;1 -->
<g id="edge5" class="edge">
<title>6&#45;&gt;1</title>
<path fill="none" stroke="grey" stroke-width="2" d="M268.05,-416.97C294.73,-396.08 324.43,-372.83 351.67,-351.51"/>
<polygon fill="grey" stroke="grey" stroke-width="2" points="353.94,-354.17 359.66,-345.25 349.63,-348.66 353.94,-354.17"/>
</g>
<!-- 6&#45;&gt;9 -->
<g id="edge15" class="edge">
<title>6&#45;&gt;9</title>
<path fill="none" stroke="grey" stroke-width="2" d="M179.85,-416.97C178.52,-400.2 177.07,-381.9 175.68,-364.3"/>
<polygon fill="grey" stroke="grey" stroke-width="2" points="179.14,-363.72 174.86,-354.03 172.16,-364.28 179.14,-363.72"/>
</g>
<!-- 7&#45;&gt;0 -->
<g id="edge2" class="edge">
<title>7&#45;&gt;0</title>
<path fill="none" stroke="grey" stroke-width="2" d="M723.36,-389.8C689.78,-335.14 645.58,-264.87 604,-204 597.9,-195.07 591.42,-185.85 584.86,-176.69"/>
<polygon fill="grey" stroke="grey" stroke-width="2" points="587.5,-174.37 578.82,-168.3 581.82,-178.46 587.5,-174.37"/>
</g>
<!-- 8 -->
<g id="node9" class="node">
<title>8</title>
<text text-anchor="start" x="709.5" y="-737.6" font-family="sans" font-weight="bold" font-size="18.00">download_molecular_profiles</text>
<text text-anchor="start" x="701" y="-716" font-family="sans" font-size="10.00"> &#160;</text>
<text text-anchor="start" x="930" y="-695.8" font-family="sans" font-size="10.00"> </text>
<text text-anchor="start" x="934" y="-695.8" font-family="sans" font-weight="bold" font-size="14.00">output →</text>
<text text-anchor="start" x="1004" y="-695.8" font-family="sans" font-size="10.00"> </text>
<text text-anchor="start" x="701" y="-676" font-family="monospace" font-size="10.00">rawdata/TCL_RNA.RDS</text>
<text text-anchor="start" x="701" y="-658" font-family="monospace" font-size="10.00">rawdata/VariantCallsTCL.RDS</text>
<text text-anchor="start" x="701" y="-640" font-family="monospace" font-size="10.00">rawdata/aCGH.RDS</text>
<text text-anchor="start" x="701" y="-622" font-family="monospace" font-size="10.00">rawdata/atac2_transformed_rnagene_peaks_all_TSS.RDS</text>
<polygon fill="#d9d957" stroke="#d9d957" points="695,-728 695,-728 1015,-728 1015,-728 695,-728"/>
<polygon fill="#d9d957" stroke="#d9d957" points="695,-710 695,-710 1015,-710 1015,-710 695,-710"/>
<polygon fill="none" stroke="#d9d957" stroke-width="2" points="694.5,-613 694.5,-757 1013.5,-757 1013.5,-613 694.5,-613"/>
</g>
<!-- 8&#45;&gt;7 -->
<g id="edge12" class="edge">
<title>8&#45;&gt;7</title>
<path fill="none" stroke="grey" stroke-width="2" d="M826.92,-611.8C823.75,-603.33 820.47,-594.58 817.18,-585.81"/>
<polygon fill="grey" stroke="grey" stroke-width="2" points="820.4,-584.43 813.61,-576.3 813.85,-586.89 820.4,-584.43"/>
</g>
<!-- 9&#45;&gt;0 -->
<g id="edge3" class="edge">
<title>9&#45;&gt;0</title>
<path fill="none" stroke="grey" stroke-width="2" d="M302.17,-203.93C336.64,-184.76 373.37,-164.33 406.48,-145.92"/>
<polygon fill="grey" stroke="grey" stroke-width="2" points="408.22,-148.95 415.26,-141.03 404.82,-142.83 408.22,-148.95"/>
</g>
</g>
</svg>
