<?xml version="1.0" encoding="UTF-8" standalone="no"?>
<!DOCTYPE svg PUBLIC "-//W3C//DTD SVG 1.1//EN"
 "http://www.w3.org/Graphics/SVG/1.1/DTD/svg11.dtd">
<!-- Generated by graphviz version 2.43.0 (0)
 -->
<!-- Title: snakemake_dag Pages: 1 -->
<svg width="994pt" height="766pt"
 viewBox="0.00 0.00 994.00 766.00" xmlns="http://www.w3.org/2000/svg" xmlns:xlink="http://www.w3.org/1999/xlink">
<g id="graph0" class="graph" transform="scale(1 1) rotate(0) translate(4 762)">
<title>snakemake_dag</title>
<polygon fill="white" stroke="transparent" points="-4,4 -4,-762 990,-762 990,4 -4,4"/>
<!-- 0 -->
<g id="node1" class="node">
<title>0</title>
<text text-anchor="start" x="475" y="-147.6" font-family="sans" font-weight="bold" font-size="18.00">make_PSET</text>
<text text-anchor="start" x="438.5" y="-123.8" font-family="sans" font-size="10.00"> </text>
<text text-anchor="start" x="442.5" y="-123.8" font-family="sans" font-weight="bold" font-size="14.00">↪ input</text>
<text text-anchor="start" x="500.5" y="-123.8" font-family="sans" font-size="10.00"> </text>
<text text-anchor="start" x="438.5" y="-104" font-family="monospace" font-size="10.00">procdata/TCL38_MAE.RDS</text>
<text text-anchor="start" x="438.5" y="-86" font-family="monospace" font-size="10.00">procdata/TCL38_TRE.RDS</text>
<text text-anchor="start" x="438.5" y="-68" font-family="monospace" font-size="10.00">procdata/sample&#45;metadata.csv</text>
<text text-anchor="start" x="438.5" y="-50" font-family="monospace" font-size="10.00">procdata/treatment&#45;metadata.csv</text>
<text text-anchor="start" x="547.5" y="-29.8" font-family="sans" font-size="10.00"> </text>
<text text-anchor="start" x="551.5" y="-29.8" font-family="sans" font-weight="bold" font-size="14.00">output →</text>
<text text-anchor="start" x="621.5" y="-29.8" font-family="sans" font-size="10.00"> </text>
<text text-anchor="start" x="438.5" y="-10" font-family="monospace" font-size="10.00">results/TCL38_PSet.RDS</text>
<polygon fill="#57d957" stroke="#57d957" points="432.5,-138 432.5,-138 632.5,-138 632.5,-138 432.5,-138"/>
<polygon fill="#57d957" stroke="#57d957" points="432.5,-44 432.5,-44 632.5,-44 632.5,-44 432.5,-44"/>
<polygon fill="none" stroke="#57d957" stroke-width="2" points="432,-1 432,-167 631,-167 631,-1 432,-1"/>
</g>
<!-- 1 -->
<g id="node2" class="node">
<title>1</title>
<text text-anchor="start" x="68.5" y="-324.6" font-family="sans" font-weight="bold" font-size="18.00">make_TRE</text>
<text text-anchor="start" x="7.5" y="-300.8" font-family="sans" font-size="10.00"> </text>
<text text-anchor="start" x="11.5" y="-300.8" font-family="sans" font-weight="bold" font-size="14.00">↪ input</text>
<text text-anchor="start" x="69.5" y="-300.8" font-family="sans" font-size="10.00"> </text>
<text text-anchor="start" x="7.5" y="-281" font-family="monospace" font-size="10.00">procdata/combo_treatment_response.csv</text>
<text text-anchor="start" x="7.5" y="-263" font-family="monospace" font-size="10.00">procdata/mono_treatment_response.csv</text>
<text text-anchor="start" x="152.5" y="-242.8" font-family="sans" font-size="10.00"> </text>
<text text-anchor="start" x="156.5" y="-242.8" font-family="sans" font-weight="bold" font-size="14.00">output →</text>
<text text-anchor="start" x="226.5" y="-242.8" font-family="sans" font-size="10.00"> </text>
<text text-anchor="start" x="7.5" y="-223" font-family="monospace" font-size="10.00">procdata/TCL38_TRE.RDS</text>
<polygon fill="#57d982" stroke="#57d982" points="1.5,-315 1.5,-315 237.5,-315 237.5,-315 1.5,-315"/>
<polygon fill="#57d982" stroke="#57d982" points="1.5,-257 1.5,-257 237.5,-257 237.5,-257 1.5,-257"/>
<polygon fill="none" stroke="#57d982" stroke-width="2" points="1,-214 1,-344 236,-344 236,-214 1,-214"/>
</g>
<!-- 1&#45;&gt;0 -->
<g id="edge3" class="edge">
<title>1&#45;&gt;0</title>
<path fill="none" stroke="grey" stroke-width="2" d="M229.03,-212.94C234.9,-209.85 240.75,-206.85 246.5,-204 303.05,-175.99 367.83,-148.59 421.33,-127.15"/>
<polygon fill="grey" stroke="grey" stroke-width="2" points="422.85,-130.31 430.84,-123.36 420.26,-123.81 422.85,-130.31"/>
</g>
<!-- 2 -->
<g id="node3" class="node">
<title>2</title>
<text text-anchor="start" x="18.5" y="-519.6" font-family="sans" font-weight="bold" font-size="18.00">process_monotherapy</text>
<text text-anchor="start" x="18.5" y="-495.8" font-family="sans" font-size="10.00"> </text>
<text text-anchor="start" x="22.5" y="-495.8" font-family="sans" font-weight="bold" font-size="14.00">↪ input</text>
<text text-anchor="start" x="80.5" y="-495.8" font-family="sans" font-size="10.00"> </text>
<text text-anchor="start" x="18.5" y="-476" font-family="monospace" font-size="10.00">rawdata/DSS_all_corrected_TC38.xlsx</text>
<text text-anchor="start" x="161.5" y="-455.8" font-family="sans" font-size="10.00"> </text>
<text text-anchor="start" x="165.5" y="-455.8" font-family="sans" font-weight="bold" font-size="14.00">output →</text>
<text text-anchor="start" x="235.5" y="-455.8" font-family="sans" font-size="10.00"> </text>
<text text-anchor="start" x="18.5" y="-436" font-family="monospace" font-size="10.00">procdata/mono_treatment_response.csv</text>
<polygon fill="#5782d9" stroke="#5782d9" points="12.5,-510 12.5,-510 246.5,-510 246.5,-510 12.5,-510"/>
<polygon fill="#5782d9" stroke="#5782d9" points="12.5,-470 12.5,-470 246.5,-470 246.5,-470 12.5,-470"/>
<polygon fill="none" stroke="#5782d9" stroke-width="2" points="12,-427 12,-539 245,-539 245,-427 12,-427"/>
</g>
<!-- 2&#45;&gt;1 -->
<g id="edge5" class="edge">
<title>2&#45;&gt;1</title>
<path fill="none" stroke="grey" stroke-width="2" d="M125.73,-426C124.65,-404.13 123.39,-378.73 122.23,-355.3"/>
<polygon fill="grey" stroke="grey" stroke-width="2" points="125.71,-354.86 121.72,-345.05 118.72,-355.21 125.71,-354.86"/>
</g>
<!-- 9 -->
<g id="node10" class="node">
<title>9</title>
<text text-anchor="start" x="262.5" y="-333.6" font-family="sans" font-weight="bold" font-size="18.00">make_treatmentMetadata</text>
<text text-anchor="start" x="262.5" y="-309.8" font-family="sans" font-size="10.00"> </text>
<text text-anchor="start" x="266.5" y="-309.8" font-family="sans" font-weight="bold" font-size="14.00">↪ input</text>
<text text-anchor="start" x="324.5" y="-309.8" font-family="sans" font-size="10.00"> </text>
<text text-anchor="start" x="262.5" y="-290" font-family="monospace" font-size="10.00">metadata/ZIPsynergyTCL38.RDS</text>
<text text-anchor="start" x="262.5" y="-272" font-family="monospace" font-size="10.00">procdata/combo_treatment_response.csv</text>
<text text-anchor="start" x="262.5" y="-254" font-family="monospace" font-size="10.00">procdata/mono_treatment_response.csv</text>
<text text-anchor="start" x="444.5" y="-233.8" font-family="sans" font-size="10.00"> </text>
<text text-anchor="start" x="448.5" y="-233.8" font-family="sans" font-weight="bold" font-size="14.00">output →</text>
<text text-anchor="start" x="518.5" y="-233.8" font-family="sans" font-size="10.00"> </text>
<text text-anchor="start" x="262.5" y="-214" font-family="monospace" font-size="10.00">procdata/treatment&#45;metadata.csv</text>
<polygon fill="#57d9d9" stroke="#57d9d9" points="256.5,-324 256.5,-324 529.5,-324 529.5,-324 256.5,-324"/>
<polygon fill="#57d9d9" stroke="#57d9d9" points="256.5,-248 256.5,-248 529.5,-248 529.5,-248 256.5,-248"/>
<polygon fill="none" stroke="#57d9d9" stroke-width="2" points="256.5,-205 256.5,-353 528.5,-353 528.5,-205 256.5,-205"/>
</g>
<!-- 2&#45;&gt;9 -->
<g id="edge13" class="edge">
<title>2&#45;&gt;9</title>
<path fill="none" stroke="grey" stroke-width="2" d="M201.69,-426C228.19,-405.72 258.67,-382.4 287.37,-360.44"/>
<polygon fill="grey" stroke="grey" stroke-width="2" points="289.6,-363.14 295.42,-354.28 285.35,-357.58 289.6,-363.14"/>
</g>
<!-- 3 -->
<g id="node4" class="node">
<title>3</title>
<text text-anchor="start" x="70.5" y="-719.6" font-family="sans" font-weight="bold" font-size="18.00">download_treatment_data</text>
<text text-anchor="start" x="70.5" y="-698" font-family="sans" font-size="10.00"> &#160;</text>
<text text-anchor="start" x="254.5" y="-677.8" font-family="sans" font-size="10.00"> </text>
<text text-anchor="start" x="258.5" y="-677.8" font-family="sans" font-weight="bold" font-size="14.00">output →</text>
<text text-anchor="start" x="328.5" y="-677.8" font-family="sans" font-size="10.00"> </text>
<text text-anchor="start" x="70.5" y="-658" font-family="monospace" font-size="10.00">rawdata/DSS_all_corrected_TC38.xlsx</text>
<text text-anchor="start" x="70.5" y="-640" font-family="monospace" font-size="10.00">rawdata/ViabilityCombinationsTCL38.zip</text>
<polygon fill="#add957" stroke="#add957" points="64.5,-710 64.5,-710 339.5,-710 339.5,-710 64.5,-710"/>
<polygon fill="#add957" stroke="#add957" points="64.5,-692 64.5,-692 339.5,-692 339.5,-692 64.5,-692"/>
<polygon fill="none" stroke="#add957" stroke-width="2" points="64.5,-631 64.5,-739 338.5,-739 338.5,-631 64.5,-631"/>
</g>
<!-- 3&#45;&gt;2 -->
<g id="edge7" class="edge">
<title>3&#45;&gt;2</title>
<path fill="none" stroke="grey" stroke-width="2" d="M181.75,-629.88C172.72,-605.15 161.95,-575.64 152.47,-549.66"/>
<polygon fill="grey" stroke="grey" stroke-width="2" points="155.75,-548.45 149.03,-540.26 149.18,-550.85 155.75,-548.45"/>
</g>
<!-- 4 -->
<g id="node5" class="node">
<title>4</title>
<text text-anchor="start" x="271.5" y="-528.6" font-family="sans" font-weight="bold" font-size="18.00">process_combotherapy</text>
<text text-anchor="start" x="271.5" y="-504.8" font-family="sans" font-size="10.00"> </text>
<text text-anchor="start" x="275.5" y="-504.8" font-family="sans" font-weight="bold" font-size="14.00">↪ input</text>
<text text-anchor="start" x="333.5" y="-504.8" font-family="sans" font-size="10.00"> </text>
<text text-anchor="start" x="271.5" y="-485" font-family="monospace" font-size="10.00">metadata/sample&#45;metadata.xlsx</text>
<text text-anchor="start" x="271.5" y="-467" font-family="monospace" font-size="10.00">rawdata/ViabilityCombinationsTCL38.zip</text>
<text text-anchor="start" x="425.5" y="-446.8" font-family="sans" font-size="10.00"> </text>
<text text-anchor="start" x="429.5" y="-446.8" font-family="sans" font-weight="bold" font-size="14.00">output →</text>
<text text-anchor="start" x="499.5" y="-446.8" font-family="sans" font-size="10.00"> </text>
<text text-anchor="start" x="271.5" y="-427" font-family="monospace" font-size="10.00">procdata/combo_treatment_response.csv</text>
<polygon fill="#57add9" stroke="#57add9" points="265.5,-519 265.5,-519 510.5,-519 510.5,-519 265.5,-519"/>
<polygon fill="#57add9" stroke="#57add9" points="265.5,-461 265.5,-461 510.5,-461 510.5,-461 265.5,-461"/>
<polygon fill="none" stroke="#57add9" stroke-width="2" points="265.5,-418 265.5,-548 509.5,-548 509.5,-418 265.5,-418"/>
</g>
<!-- 3&#45;&gt;4 -->
<g id="edge9" class="edge">
<title>3&#45;&gt;4</title>
<path fill="none" stroke="grey" stroke-width="2" d="M251.83,-629.88C272.8,-607.34 297.45,-580.83 319.95,-556.63"/>
<polygon fill="grey" stroke="grey" stroke-width="2" points="322.61,-558.91 326.86,-549.2 317.49,-554.14 322.61,-558.91"/>
</g>
<!-- 4&#45;&gt;1 -->
<g id="edge6" class="edge">
<title>4&#45;&gt;1</title>
<path fill="none" stroke="grey" stroke-width="2" d="M300.91,-416.97C273.09,-396.08 242.12,-372.83 213.72,-351.51"/>
<polygon fill="grey" stroke="grey" stroke-width="2" points="215.49,-348.46 205.39,-345.25 211.29,-354.05 215.49,-348.46"/>
</g>
<!-- 4&#45;&gt;9 -->
<g id="edge15" class="edge">
<title>4&#45;&gt;9</title>
<path fill="none" stroke="grey" stroke-width="2" d="M389.11,-416.97C389.52,-400.2 389.98,-381.9 390.41,-364.3"/>
<polygon fill="grey" stroke="grey" stroke-width="2" points="393.92,-364.11 390.67,-354.03 386.92,-363.94 393.92,-364.11"/>
</g>
<!-- 5 -->
<g id="node6" class="node">
<title>5</title>
<text text-anchor="start" x="437.5" y="-719.6" font-family="sans" font-weight="bold" font-size="18.00">download_metadata</text>
<text text-anchor="start" x="437.5" y="-698" font-family="sans" font-size="10.00"> &#160;</text>
<text text-anchor="start" x="561.5" y="-677.8" font-family="sans" font-size="10.00"> </text>
<text text-anchor="start" x="565.5" y="-677.8" font-family="sans" font-weight="bold" font-size="14.00">output →</text>
<text text-anchor="start" x="635.5" y="-677.8" font-family="sans" font-size="10.00"> </text>
<text text-anchor="start" x="437.5" y="-658" font-family="monospace" font-size="10.00">metadata/ZIPsynergyTCL38.RDS</text>
<text text-anchor="start" x="437.5" y="-640" font-family="monospace" font-size="10.00">metadata/sample&#45;metadata.xlsx</text>
<polygon fill="#d9ad57" stroke="#d9ad57" points="431.5,-710 431.5,-710 646.5,-710 646.5,-710 431.5,-710"/>
<polygon fill="#d9ad57" stroke="#d9ad57" points="431.5,-692 431.5,-692 646.5,-692 646.5,-692 431.5,-692"/>
<polygon fill="none" stroke="#d9ad57" stroke-width="2" points="431.5,-631 431.5,-739 645.5,-739 645.5,-631 431.5,-631"/>
</g>
<!-- 5&#45;&gt;4 -->
<g id="edge8" class="edge">
<title>5&#45;&gt;4</title>
<path fill="none" stroke="grey" stroke-width="2" d="M497.64,-629.88C480.77,-607.53 460.95,-581.28 442.81,-557.26"/>
<polygon fill="grey" stroke="grey" stroke-width="2" points="445.55,-555.08 436.73,-549.2 439.96,-559.29 445.55,-555.08"/>
</g>
<!-- 6 -->
<g id="node7" class="node">
<title>6</title>
<text text-anchor="start" x="778.5" y="-555.6" font-family="sans" font-weight="bold" font-size="18.00">get_MAE</text>
<text text-anchor="start" x="668.5" y="-531.8" font-family="sans" font-size="10.00"> </text>
<text text-anchor="start" x="672.5" y="-531.8" font-family="sans" font-weight="bold" font-size="14.00">↪ input</text>
<text text-anchor="start" x="730.5" y="-531.8" font-family="sans" font-size="10.00"> </text>
<text text-anchor="start" x="668.5" y="-512" font-family="monospace" font-size="10.00">metadata/sample&#45;metadata.xlsx</text>
<text text-anchor="start" x="668.5" y="-494" font-family="monospace" font-size="10.00">rawdata/TCL_RNA.RDS</text>
<text text-anchor="start" x="668.5" y="-476" font-family="monospace" font-size="10.00">rawdata/VariantCallsTCL.RDS</text>
<text text-anchor="start" x="668.5" y="-458" font-family="monospace" font-size="10.00">rawdata/aCGH.RDS</text>
<text text-anchor="start" x="668.5" y="-440" font-family="monospace" font-size="10.00">rawdata/atac2_transformed_rnagene_peaks_all_TSS.RDS</text>
<text text-anchor="start" x="897.5" y="-419.8" font-family="sans" font-size="10.00"> </text>
<text text-anchor="start" x="901.5" y="-419.8" font-family="sans" font-weight="bold" font-size="14.00">output →</text>
<text text-anchor="start" x="971.5" y="-419.8" font-family="sans" font-size="10.00"> </text>
<text text-anchor="start" x="668.5" y="-400" font-family="monospace" font-size="10.00">procdata/TCL38_MAE.RDS</text>
<polygon fill="#82d957" stroke="#82d957" points="662.5,-546 662.5,-546 982.5,-546 982.5,-546 662.5,-546"/>
<polygon fill="#82d957" stroke="#82d957" points="662.5,-434 662.5,-434 982.5,-434 982.5,-434 662.5,-434"/>
<polygon fill="none" stroke="#82d957" stroke-width="2" points="662,-391 662,-575 981,-575 981,-391 662,-391"/>
</g>
<!-- 5&#45;&gt;6 -->
<g id="edge10" class="edge">
<title>5&#45;&gt;6</title>
<path fill="none" stroke="grey" stroke-width="2" d="M615.08,-629.88C636.1,-615.03 659.55,-598.45 682.89,-581.95"/>
<polygon fill="grey" stroke="grey" stroke-width="2" points="685,-584.75 691.14,-576.13 680.96,-579.04 685,-584.75"/>
</g>
<!-- 8 -->
<g id="node9" class="node">
<title>8</title>
<text text-anchor="start" x="555.5" y="-315.6" font-family="sans" font-weight="bold" font-size="18.00">make_sampleMetadata</text>
<text text-anchor="start" x="555.5" y="-291.8" font-family="sans" font-size="10.00"> </text>
<text text-anchor="start" x="559.5" y="-291.8" font-family="sans" font-weight="bold" font-size="14.00">↪ input</text>
<text text-anchor="start" x="617.5" y="-291.8" font-family="sans" font-size="10.00"> </text>
<text text-anchor="start" x="555.5" y="-272" font-family="monospace" font-size="10.00">metadata/sample&#45;metadata.xlsx</text>
<text text-anchor="start" x="708.5" y="-251.8" font-family="sans" font-size="10.00"> </text>
<text text-anchor="start" x="712.5" y="-251.8" font-family="sans" font-weight="bold" font-size="14.00">output →</text>
<text text-anchor="start" x="782.5" y="-251.8" font-family="sans" font-size="10.00"> </text>
<text text-anchor="start" x="555.5" y="-232" font-family="monospace" font-size="10.00">procdata/sample&#45;metadata.csv</text>
<polygon fill="#57d9ad" stroke="#57d9ad" points="549.5,-306 549.5,-306 793.5,-306 793.5,-306 549.5,-306"/>
<polygon fill="#57d9ad" stroke="#57d9ad" points="549.5,-266 549.5,-266 793.5,-266 793.5,-266 549.5,-266"/>
<polygon fill="none" stroke="#57d9ad" stroke-width="2" points="549,-223 549,-335 792,-335 792,-223 549,-223"/>
</g>
<!-- 5&#45;&gt;8 -->
<g id="edge12" class="edge">
<title>5&#45;&gt;8</title>
<path fill="none" stroke="grey" stroke-width="2" d="M556.17,-629.93C580.18,-556.43 623.1,-425.06 648.97,-345.88"/>
<polygon fill="grey" stroke="grey" stroke-width="2" points="652.42,-346.61 652.2,-336.02 645.76,-344.43 652.42,-346.61"/>
</g>
<!-- 5&#45;&gt;9 -->
<g id="edge14" class="edge">
<title>5&#45;&gt;9</title>
<path fill="none" stroke="grey" stroke-width="2" d="M546.98,-629.85C553.99,-568.31 557.48,-466.51 519.5,-390 514.53,-380 508.21,-370.53 501.05,-361.65"/>
<polygon fill="grey" stroke="grey" stroke-width="2" points="503.7,-359.36 494.56,-354.01 498.37,-363.89 503.7,-359.36"/>
</g>
<!-- 6&#45;&gt;0 -->
<g id="edge4" class="edge">
<title>6&#45;&gt;0</title>
<path fill="none" stroke="grey" stroke-width="2" d="M837.98,-389.88C843.27,-331.54 839.98,-257.33 802.5,-204 765.42,-151.24 699.57,-121.62 642.07,-105.12"/>
<polygon fill="grey" stroke="grey" stroke-width="2" points="642.76,-101.67 632.19,-102.38 640.89,-108.42 642.76,-101.67"/>
</g>
<!-- 7 -->
<g id="node8" class="node">
<title>7</title>
<text text-anchor="start" x="681" y="-737.6" font-family="sans" font-weight="bold" font-size="18.00">download_molecular_profiles</text>
<text text-anchor="start" x="672.5" y="-716" font-family="sans" font-size="10.00"> &#160;</text>
<text text-anchor="start" x="901.5" y="-695.8" font-family="sans" font-size="10.00"> </text>
<text text-anchor="start" x="905.5" y="-695.8" font-family="sans" font-weight="bold" font-size="14.00">output →</text>
<text text-anchor="start" x="975.5" y="-695.8" font-family="sans" font-size="10.00"> </text>
<text text-anchor="start" x="672.5" y="-676" font-family="monospace" font-size="10.00">rawdata/TCL_RNA.RDS</text>
<text text-anchor="start" x="672.5" y="-658" font-family="monospace" font-size="10.00">rawdata/VariantCallsTCL.RDS</text>
<text text-anchor="start" x="672.5" y="-640" font-family="monospace" font-size="10.00">rawdata/aCGH.RDS</text>
<text text-anchor="start" x="672.5" y="-622" font-family="monospace" font-size="10.00">rawdata/atac2_transformed_rnagene_peaks_all_TSS.RDS</text>
<polygon fill="#d9d957" stroke="#d9d957" points="666.5,-728 666.5,-728 986.5,-728 986.5,-728 666.5,-728"/>
<polygon fill="#d9d957" stroke="#d9d957" points="666.5,-710 666.5,-710 986.5,-710 986.5,-710 666.5,-710"/>
<polygon fill="none" stroke="#d9d957" stroke-width="2" points="666,-613 666,-757 985,-757 985,-613 666,-613"/>
</g>
<!-- 7&#45;&gt;6 -->
<g id="edge11" class="edge">
<title>7&#45;&gt;6</title>
<path fill="none" stroke="grey" stroke-width="2" d="M824.06,-611.8C823.89,-603.51 823.72,-594.95 823.55,-586.37"/>
<polygon fill="grey" stroke="grey" stroke-width="2" points="827.05,-586.23 823.35,-576.3 820.05,-586.37 827.05,-586.23"/>
</g>
<!-- 8&#45;&gt;0 -->
<g id="edge1" class="edge">
<title>8&#45;&gt;0</title>
<path fill="none" stroke="grey" stroke-width="2" d="M630.11,-221.92C619.8,-207.61 608.45,-191.85 597.23,-176.27"/>
<polygon fill="grey" stroke="grey" stroke-width="2" points="600.07,-174.22 591.39,-168.15 594.39,-178.31 600.07,-174.22"/>
</g>
<!-- 9&#45;&gt;0 -->
<g id="edge2" class="edge">
<title>9&#45;&gt;0</title>
<path fill="none" stroke="grey" stroke-width="2" d="M445.84,-203.93C452.29,-194.98 458.94,-185.76 465.54,-176.59"/>
<polygon fill="grey" stroke="grey" stroke-width="2" points="468.58,-178.36 471.58,-168.2 462.9,-174.27 468.58,-178.36"/>
</g>
</g>
</svg>
