<?xml version="1.0" encoding="UTF-8" standalone="no"?>
<!DOCTYPE svg PUBLIC "-//W3C//DTD SVG 1.1//EN"
 "http://www.w3.org/Graphics/SVG/1.1/DTD/svg11.dtd">
<!-- Generated by graphviz version 2.43.0 (0)
 -->
<!-- Title: snakemake_dag Pages: 1 -->
<svg width="465pt" height="188pt"
 viewBox="0.00 0.00 465.00 188.00" xmlns="http://www.w3.org/2000/svg" xmlns:xlink="http://www.w3.org/1999/xlink">
<g id="graph0" class="graph" transform="scale(1 1) rotate(0) translate(4 184)">
<title>snakemake_dag</title>
<polygon fill="white" stroke="transparent" points="-4,4 -4,-184 461,-184 461,4 -4,4"/>
<!-- 0 -->
<g id="node1" class="node">
<title>0</title>
<path fill="none" stroke="#d6d856" stroke-width="2" d="M196.5,-36C196.5,-36 147.5,-36 147.5,-36 141.5,-36 135.5,-30 135.5,-24 135.5,-24 135.5,-12 135.5,-12 135.5,-6 141.5,0 147.5,0 147.5,0 196.5,0 196.5,0 202.5,0 208.5,-6 208.5,-12 208.5,-12 208.5,-24 208.5,-24 208.5,-30 202.5,-36 196.5,-36"/>
<text text-anchor="middle" x="172" y="-15.5" font-family="sans" font-size="10.00">make_PSET</text>
</g>
<!-- 1 -->
<g id="node2" class="node">
<title>1</title>
<path fill="none" stroke="#97d856" stroke-width="2" d="M56,-108C56,-108 12,-108 12,-108 6,-108 0,-102 0,-96 0,-96 0,-84 0,-84 0,-78 6,-72 12,-72 12,-72 56,-72 56,-72 62,-72 68,-78 68,-84 68,-84 68,-96 68,-96 68,-102 62,-108 56,-108"/>
<text text-anchor="middle" x="34" y="-87.5" font-family="sans" font-size="10.00">make_TRE</text>
</g>
<!-- 1&#45;&gt;0 -->
<g id="edge3" class="edge">
<title>1&#45;&gt;0</title>
<path fill="none" stroke="grey" stroke-width="2" d="M67.76,-71.88C86.22,-62.51 109.28,-50.81 129.02,-40.8"/>
<polygon fill="grey" stroke="grey" stroke-width="2" points="130.78,-43.83 138.11,-36.19 127.61,-37.59 130.78,-43.83"/>
</g>
<!-- 2 -->
<g id="node3" class="node">
<title>2</title>
<path fill="none" stroke="#569ad8" stroke-width="2" d="M186.5,-180C186.5,-180 85.5,-180 85.5,-180 79.5,-180 73.5,-174 73.5,-168 73.5,-168 73.5,-156 73.5,-156 73.5,-150 79.5,-144 85.5,-144 85.5,-144 186.5,-144 186.5,-144 192.5,-144 198.5,-150 198.5,-156 198.5,-156 198.5,-168 198.5,-168 198.5,-174 192.5,-180 186.5,-180"/>
<text text-anchor="middle" x="136" y="-159.5" font-family="sans" font-size="10.00">process_monotherapy</text>
</g>
<!-- 2&#45;&gt;1 -->
<g id="edge5" class="edge">
<title>2&#45;&gt;1</title>
<path fill="none" stroke="grey" stroke-width="2" d="M111.05,-143.88C97.96,-134.89 81.74,-123.76 67.56,-114.03"/>
<polygon fill="grey" stroke="grey" stroke-width="2" points="69.27,-110.96 59.05,-108.19 65.31,-116.73 69.27,-110.96"/>
</g>
<!-- 6 -->
<g id="node7" class="node">
<title>6</title>
<path fill="none" stroke="#56d89a" stroke-width="2" d="M445,-108C445,-108 325,-108 325,-108 319,-108 313,-102 313,-96 313,-96 313,-84 313,-84 313,-78 319,-72 325,-72 325,-72 445,-72 445,-72 451,-72 457,-78 457,-84 457,-84 457,-96 457,-96 457,-102 451,-108 445,-108"/>
<text text-anchor="middle" x="385" y="-87.5" font-family="sans" font-size="10.00">make_treatmentMetadata</text>
</g>
<!-- 2&#45;&gt;6 -->
<g id="edge7" class="edge">
<title>2&#45;&gt;6</title>
<path fill="none" stroke="grey" stroke-width="2" d="M196.59,-143.97C232.14,-133.97 277.22,-121.3 314.38,-110.85"/>
<polygon fill="grey" stroke="grey" stroke-width="2" points="315.45,-114.19 324.13,-108.11 313.56,-107.45 315.45,-114.19"/>
</g>
<!-- 3 -->
<g id="node4" class="node">
<title>3</title>
<path fill="none" stroke="#56d8d8" stroke-width="2" d="M386,-180C386,-180 280,-180 280,-180 274,-180 268,-174 268,-168 268,-168 268,-156 268,-156 268,-150 274,-144 280,-144 280,-144 386,-144 386,-144 392,-144 398,-150 398,-156 398,-156 398,-168 398,-168 398,-174 392,-180 386,-180"/>
<text text-anchor="middle" x="333" y="-159.5" font-family="sans" font-size="10.00">process_combotherapy</text>
</g>
<!-- 3&#45;&gt;1 -->
<g id="edge6" class="edge">
<title>3&#45;&gt;1</title>
<path fill="none" stroke="grey" stroke-width="2" d="M267.79,-150.7C217.94,-142.09 147.49,-128.37 77.89,-108.01"/>
<polygon fill="grey" stroke="grey" stroke-width="2" points="78.66,-104.58 68.08,-105.09 76.67,-111.29 78.66,-104.58"/>
</g>
<!-- 3&#45;&gt;6 -->
<g id="edge8" class="edge">
<title>3&#45;&gt;6</title>
<path fill="none" stroke="grey" stroke-width="2" d="M345.85,-143.7C352.03,-135.39 359.54,-125.28 366.32,-116.14"/>
<polygon fill="grey" stroke="grey" stroke-width="2" points="369.14,-118.22 372.29,-108.1 363.52,-114.04 369.14,-118.22"/>
</g>
<!-- 4 -->
<g id="node5" class="node">
<title>4</title>
<path fill="none" stroke="#d89556" stroke-width="2" d="M133.5,-108C133.5,-108 98.5,-108 98.5,-108 92.5,-108 86.5,-102 86.5,-96 86.5,-96 86.5,-84 86.5,-84 86.5,-78 92.5,-72 98.5,-72 98.5,-72 133.5,-72 133.5,-72 139.5,-72 145.5,-78 145.5,-84 145.5,-84 145.5,-96 145.5,-96 145.5,-102 139.5,-108 133.5,-108"/>
<text text-anchor="middle" x="116" y="-87.5" font-family="sans" font-size="10.00">get_MAE</text>
</g>
<!-- 4&#45;&gt;0 -->
<g id="edge1" class="edge">
<title>4&#45;&gt;0</title>
<path fill="none" stroke="grey" stroke-width="2" d="M129.84,-71.7C136.49,-63.39 144.58,-53.28 151.89,-44.14"/>
<polygon fill="grey" stroke="grey" stroke-width="2" points="154.8,-46.1 158.32,-36.1 149.34,-41.73 154.8,-46.1"/>
</g>
<!-- 5 -->
<g id="node6" class="node">
<title>5</title>
<path fill="none" stroke="#59d856" stroke-width="2" d="M282.5,-108C282.5,-108 175.5,-108 175.5,-108 169.5,-108 163.5,-102 163.5,-96 163.5,-96 163.5,-84 163.5,-84 163.5,-78 169.5,-72 175.5,-72 175.5,-72 282.5,-72 282.5,-72 288.5,-72 294.5,-78 294.5,-84 294.5,-84 294.5,-96 294.5,-96 294.5,-102 288.5,-108 282.5,-108"/>
<text text-anchor="middle" x="229" y="-87.5" font-family="sans" font-size="10.00">make_sampleMetadata</text>
</g>
<!-- 5&#45;&gt;0 -->
<g id="edge2" class="edge">
<title>5&#45;&gt;0</title>
<path fill="none" stroke="grey" stroke-width="2" d="M214.91,-71.7C208.08,-63.3 199.74,-53.07 192.24,-43.86"/>
<polygon fill="grey" stroke="grey" stroke-width="2" points="194.96,-41.65 185.93,-36.1 189.53,-46.07 194.96,-41.65"/>
</g>
<!-- 6&#45;&gt;0 -->
<g id="edge4" class="edge">
<title>6&#45;&gt;0</title>
<path fill="none" stroke="grey" stroke-width="2" d="M333.17,-71.97C298.09,-60.44 252.15,-45.34 218.3,-34.21"/>
<polygon fill="grey" stroke="grey" stroke-width="2" points="219.24,-30.84 208.65,-31.04 217.05,-37.49 219.24,-30.84"/>
</g>
</g>
</svg>
