<?xml version="1.0" encoding="UTF-8" standalone="no"?>
<!DOCTYPE svg PUBLIC "-//W3C//DTD SVG 1.1//EN"
 "http://www.w3.org/Graphics/SVG/1.1/DTD/svg11.dtd">
<!-- Generated by graphviz version 2.43.0 (0)
 -->
<!-- Title: snakemake_dag Pages: 1 -->
<svg width="566pt" height="332pt"
 viewBox="0.00 0.00 565.50 332.00" xmlns="http://www.w3.org/2000/svg" xmlns:xlink="http://www.w3.org/1999/xlink">
<g id="graph0" class="graph" transform="scale(1 1) rotate(0) translate(4 328)">
<title>snakemake_dag</title>
<polygon fill="white" stroke="transparent" points="-4,4 -4,-328 561.5,-328 561.5,4 -4,4"/>
<!-- 0 -->
<g id="node1" class="node">
<title>0</title>
<path fill="none" stroke="#59d856" stroke-width="2" d="M311.5,-36C311.5,-36 262.5,-36 262.5,-36 256.5,-36 250.5,-30 250.5,-24 250.5,-24 250.5,-12 250.5,-12 250.5,-6 256.5,0 262.5,0 262.5,0 311.5,0 311.5,0 317.5,0 323.5,-6 323.5,-12 323.5,-12 323.5,-24 323.5,-24 323.5,-30 317.5,-36 311.5,-36"/>
<text text-anchor="middle" x="287" y="-15.5" font-family="sans" font-size="10.00">make_PSET</text>
</g>
<!-- 1 -->
<g id="node2" class="node">
<title>1</title>
<path fill="none" stroke="#56d882" stroke-width="2" d="M264,-108C264,-108 220,-108 220,-108 214,-108 208,-102 208,-96 208,-96 208,-84 208,-84 208,-78 214,-72 220,-72 220,-72 264,-72 264,-72 270,-72 276,-78 276,-84 276,-84 276,-96 276,-96 276,-102 270,-108 264,-108"/>
<text text-anchor="middle" x="242" y="-87.5" font-family="sans" font-size="10.00">make_TRE</text>
</g>
<!-- 1&#45;&gt;0 -->
<g id="edge1" class="edge">
<title>1&#45;&gt;0</title>
<path fill="none" stroke="grey" stroke-width="2" d="M253.12,-71.7C258.36,-63.56 264.7,-53.69 270.48,-44.7"/>
<polygon fill="grey" stroke="grey" stroke-width="2" points="273.54,-46.41 276,-36.1 267.65,-42.62 273.54,-46.41"/>
</g>
<!-- 2 -->
<g id="node3" class="node">
<title>2</title>
<path fill="none" stroke="#5682d8" stroke-width="2" d="M292.5,-180C292.5,-180 191.5,-180 191.5,-180 185.5,-180 179.5,-174 179.5,-168 179.5,-168 179.5,-156 179.5,-156 179.5,-150 185.5,-144 191.5,-144 191.5,-144 292.5,-144 292.5,-144 298.5,-144 304.5,-150 304.5,-156 304.5,-156 304.5,-168 304.5,-168 304.5,-174 298.5,-180 292.5,-180"/>
<text text-anchor="middle" x="242" y="-159.5" font-family="sans" font-size="10.00">process_monotherapy</text>
</g>
<!-- 2&#45;&gt;1 -->
<g id="edge5" class="edge">
<title>2&#45;&gt;1</title>
<path fill="none" stroke="grey" stroke-width="2" d="M242,-143.7C242,-135.98 242,-126.71 242,-118.11"/>
<polygon fill="grey" stroke="grey" stroke-width="2" points="245.5,-118.1 242,-108.1 238.5,-118.1 245.5,-118.1"/>
</g>
<!-- 9 -->
<g id="node10" class="node">
<title>9</title>
<path fill="none" stroke="#56d8d8" stroke-width="2" d="M167,-108C167,-108 47,-108 47,-108 41,-108 35,-102 35,-96 35,-96 35,-84 35,-84 35,-78 41,-72 47,-72 47,-72 167,-72 167,-72 173,-72 179,-78 179,-84 179,-84 179,-96 179,-96 179,-102 173,-108 167,-108"/>
<text text-anchor="middle" x="107" y="-87.5" font-family="sans" font-size="10.00">make_treatmentMetadata</text>
</g>
<!-- 2&#45;&gt;9 -->
<g id="edge14" class="edge">
<title>2&#45;&gt;9</title>
<path fill="none" stroke="grey" stroke-width="2" d="M208.98,-143.88C190.92,-134.51 168.35,-122.81 149.05,-112.8"/>
<polygon fill="grey" stroke="grey" stroke-width="2" points="150.64,-109.69 140.15,-108.19 147.42,-115.9 150.64,-109.69"/>
</g>
<!-- 3 -->
<g id="node4" class="node">
<title>3</title>
<path fill="none" stroke="#afd856" stroke-width="2" d="M219.5,-252C219.5,-252 98.5,-252 98.5,-252 92.5,-252 86.5,-246 86.5,-240 86.5,-240 86.5,-228 86.5,-228 86.5,-222 92.5,-216 98.5,-216 98.5,-216 219.5,-216 219.5,-216 225.5,-216 231.5,-222 231.5,-228 231.5,-228 231.5,-240 231.5,-240 231.5,-246 225.5,-252 219.5,-252"/>
<text text-anchor="middle" x="159" y="-231.5" font-family="sans" font-size="10.00">download_treatment_data</text>
</g>
<!-- 3&#45;&gt;2 -->
<g id="edge8" class="edge">
<title>3&#45;&gt;2</title>
<path fill="none" stroke="grey" stroke-width="2" d="M179.52,-215.7C189.87,-206.97 202.59,-196.24 213.84,-186.75"/>
<polygon fill="grey" stroke="grey" stroke-width="2" points="216.33,-189.23 221.72,-180.1 211.82,-183.88 216.33,-189.23"/>
</g>
<!-- 6 -->
<g id="node7" class="node">
<title>6</title>
<path fill="none" stroke="#56a9d8" stroke-width="2" d="M149,-180C149,-180 43,-180 43,-180 37,-180 31,-174 31,-168 31,-168 31,-156 31,-156 31,-150 37,-144 43,-144 43,-144 149,-144 149,-144 155,-144 161,-150 161,-156 161,-156 161,-168 161,-168 161,-174 155,-180 149,-180"/>
<text text-anchor="middle" x="96" y="-159.5" font-family="sans" font-size="10.00">process_combotherapy</text>
</g>
<!-- 3&#45;&gt;6 -->
<g id="edge10" class="edge">
<title>3&#45;&gt;6</title>
<path fill="none" stroke="grey" stroke-width="2" d="M143.43,-215.7C135.8,-207.22 126.48,-196.86 118.12,-187.58"/>
<polygon fill="grey" stroke="grey" stroke-width="2" points="120.69,-185.2 111.39,-180.1 115.48,-189.88 120.69,-185.2"/>
</g>
<!-- 4 -->
<g id="node5" class="node">
<title>4</title>
<path fill="none" stroke="#56d8a9" stroke-width="2" d="M368.5,-252C368.5,-252 261.5,-252 261.5,-252 255.5,-252 249.5,-246 249.5,-240 249.5,-240 249.5,-228 249.5,-228 249.5,-222 255.5,-216 261.5,-216 261.5,-216 368.5,-216 368.5,-216 374.5,-216 380.5,-222 380.5,-228 380.5,-228 380.5,-240 380.5,-240 380.5,-246 374.5,-252 368.5,-252"/>
<text text-anchor="middle" x="315" y="-231.5" font-family="sans" font-size="10.00">make_sampleMetadata</text>
</g>
<!-- 4&#45;&gt;0 -->
<g id="edge2" class="edge">
<title>4&#45;&gt;0</title>
<path fill="none" stroke="grey" stroke-width="2" d="M315.83,-215.88C316.45,-197.91 316.8,-168.88 314,-144 310.16,-109.83 301.08,-71.25 294.51,-46.11"/>
<polygon fill="grey" stroke="grey" stroke-width="2" points="297.83,-44.97 291.87,-36.21 291.07,-46.77 297.83,-44.97"/>
</g>
<!-- 4&#45;&gt;2 -->
<g id="edge7" class="edge">
<title>4&#45;&gt;2</title>
<path fill="none" stroke="grey" stroke-width="2" d="M296.96,-215.7C287.94,-207.05 276.88,-196.45 267.06,-187.03"/>
<polygon fill="grey" stroke="grey" stroke-width="2" points="269.48,-184.5 259.84,-180.1 264.63,-189.55 269.48,-184.5"/>
</g>
<!-- 7 -->
<g id="node8" class="node">
<title>7</title>
<path fill="none" stroke="#80d856" stroke-width="2" d="M408.5,-180C408.5,-180 373.5,-180 373.5,-180 367.5,-180 361.5,-174 361.5,-168 361.5,-168 361.5,-156 361.5,-156 361.5,-150 367.5,-144 373.5,-144 373.5,-144 408.5,-144 408.5,-144 414.5,-144 420.5,-150 420.5,-156 420.5,-156 420.5,-168 420.5,-168 420.5,-174 414.5,-180 408.5,-180"/>
<text text-anchor="middle" x="391" y="-159.5" font-family="sans" font-size="10.00">get_MAE</text>
</g>
<!-- 4&#45;&gt;7 -->
<g id="edge12" class="edge">
<title>4&#45;&gt;7</title>
<path fill="none" stroke="grey" stroke-width="2" d="M333.79,-215.7C343.17,-207.05 354.68,-196.45 364.91,-187.03"/>
<polygon fill="grey" stroke="grey" stroke-width="2" points="367.45,-189.45 372.43,-180.1 362.7,-184.3 367.45,-189.45"/>
</g>
<!-- 5 -->
<g id="node6" class="node">
<title>5</title>
<path fill="none" stroke="#d8ac56" stroke-width="2" d="M104,-324C104,-324 12,-324 12,-324 6,-324 0,-318 0,-312 0,-312 0,-300 0,-300 0,-294 6,-288 12,-288 12,-288 104,-288 104,-288 110,-288 116,-294 116,-300 116,-300 116,-312 116,-312 116,-318 110,-324 104,-324"/>
<text text-anchor="middle" x="58" y="-303.5" font-family="sans" font-size="10.00">download_metadata</text>
</g>
<!-- 5&#45;&gt;4 -->
<g id="edge9" class="edge">
<title>5&#45;&gt;4</title>
<path fill="none" stroke="grey" stroke-width="2" d="M116.32,-289.12C153.8,-278.91 202.79,-265.56 242.74,-254.68"/>
<polygon fill="grey" stroke="grey" stroke-width="2" points="243.69,-258.05 252.42,-252.04 241.86,-251.3 243.69,-258.05"/>
</g>
<!-- 5&#45;&gt;6 -->
<g id="edge11" class="edge">
<title>5&#45;&gt;6</title>
<path fill="none" stroke="grey" stroke-width="2" d="M60.97,-287.77C64.25,-269.72 69.99,-240.62 77,-216 79.43,-207.44 82.54,-198.27 85.53,-190.01"/>
<polygon fill="grey" stroke="grey" stroke-width="2" points="88.87,-191.07 89.07,-180.47 82.31,-188.63 88.87,-191.07"/>
</g>
<!-- 5&#45;&gt;9 -->
<g id="edge15" class="edge">
<title>5&#45;&gt;9</title>
<path fill="none" stroke="grey" stroke-width="2" d="M46.79,-287.9C28.21,-257.22 -4.41,-191.58 22,-144 29.13,-131.15 40.81,-121.01 53.27,-113.19"/>
<polygon fill="grey" stroke="grey" stroke-width="2" points="55.08,-116.19 61.97,-108.14 51.56,-110.13 55.08,-116.19"/>
</g>
<!-- 6&#45;&gt;1 -->
<g id="edge6" class="edge">
<title>6&#45;&gt;1</title>
<path fill="none" stroke="grey" stroke-width="2" d="M131.72,-143.88C151.86,-134.22 177.19,-122.07 198.5,-111.86"/>
<polygon fill="grey" stroke="grey" stroke-width="2" points="200.15,-114.94 207.66,-107.47 197.13,-108.63 200.15,-114.94"/>
</g>
<!-- 6&#45;&gt;9 -->
<g id="edge16" class="edge">
<title>6&#45;&gt;9</title>
<path fill="none" stroke="grey" stroke-width="2" d="M98.72,-143.7C99.93,-135.98 101.39,-126.71 102.74,-118.11"/>
<polygon fill="grey" stroke="grey" stroke-width="2" points="106.22,-118.53 104.31,-108.1 99.3,-117.44 106.22,-118.53"/>
</g>
<!-- 7&#45;&gt;0 -->
<g id="edge4" class="edge">
<title>7&#45;&gt;0</title>
<path fill="none" stroke="grey" stroke-width="2" d="M384.83,-143.82C377.57,-125.03 364.28,-94.59 347,-72 338.8,-61.29 328.2,-51.08 318.19,-42.53"/>
<polygon fill="grey" stroke="grey" stroke-width="2" points="320.28,-39.73 310.34,-36.06 315.83,-45.12 320.28,-39.73"/>
</g>
<!-- 8 -->
<g id="node9" class="node">
<title>8</title>
<path fill="none" stroke="#d6d856" stroke-width="2" d="M545.5,-252C545.5,-252 410.5,-252 410.5,-252 404.5,-252 398.5,-246 398.5,-240 398.5,-240 398.5,-228 398.5,-228 398.5,-222 404.5,-216 410.5,-216 410.5,-216 545.5,-216 545.5,-216 551.5,-216 557.5,-222 557.5,-228 557.5,-228 557.5,-240 557.5,-240 557.5,-246 551.5,-252 545.5,-252"/>
<text text-anchor="middle" x="478" y="-231.5" font-family="sans" font-size="10.00">download_molecular_profiles</text>
</g>
<!-- 8&#45;&gt;7 -->
<g id="edge13" class="edge">
<title>8&#45;&gt;7</title>
<path fill="none" stroke="grey" stroke-width="2" d="M456.49,-215.7C445.54,-206.88 432.05,-196.03 420.18,-186.47"/>
<polygon fill="grey" stroke="grey" stroke-width="2" points="422.24,-183.65 412.26,-180.1 417.86,-189.1 422.24,-183.65"/>
</g>
<!-- 9&#45;&gt;0 -->
<g id="edge3" class="edge">
<title>9&#45;&gt;0</title>
<path fill="none" stroke="grey" stroke-width="2" d="M151.03,-71.88C178.31,-61.27 213.29,-47.66 240.94,-36.91"/>
<polygon fill="grey" stroke="grey" stroke-width="2" points="242.34,-40.12 250.39,-33.24 239.8,-33.6 242.34,-40.12"/>
</g>
</g>
</svg>
